<?xml version="1.0" encoding="utf-8"?>
<!-- Generator: Adobe Illustrator 24.2.3, SVG Export Plug-In . SVG Version: 6.00 Build 0)  -->
<svg version="1.1" id="Layer_1" xmlns="http://www.w3.org/2000/svg" xmlns:xlink="http://www.w3.org/1999/xlink" x="0px" y="0px"
	 viewBox="0 0 200 200" style="enable-background:new 0 0 200 200;" xml:space="preserve">
<style type="text/css">
	.st0{fill:#E0DFDE;}
	.st1{fill:#89C0CF;}
</style>
<g id="Group_153" transform="translate(-81.863 -286)">
	<path id="Path_723" class="st0" d="M176.1,319.3c-0.3,1.3-0.7,2.7-0.8,3.2c-0.2,0.7-0.4,1.4-0.6,2c-0.9,3.7-1.5,5.1-2.9,6.3
		c-2.9,1.9-6.2,3.4-9.6,4.3c-0.5,0.2-1,0.4-1,0.5s-0.2,0.2-0.5,0.2c-1.1,0.3-2.2,0.8-3.1,1.4c-0.1,0.1-0.2,0.2-0.4,0.2
		c-1.1,0-4.7,4-4.1,4.5c0.6,0.2,1.3,0.3,1.9,0.4c2.8,0.4,5.5,0.8,7.4,1.3c4,0.8,7.9,1.9,11.7,3.3c0.6,0.3,1.2,0.4,1.9,0.6
		c0.2,0,0.3-0.7,0.3-1.8c0-1,0.2-3.2,0.3-4.8c0.2-1.6,0.5-5.6,0.6-8.7c0.1-4.5,0.5-9.1,1.2-13.6c0.3-1.1,0.2-1.2-1.1-1.6l-0.8-0.2
		L176.1,319.3z"/>
	<path id="Path_724" class="st0" d="M185.4,317.2c-1.2,0.3-1.2,0.3-0.6,5.1c0.5,3.5,0.9,10.1,1.4,19.6c0.2,3.1,0.3,5.6,0.4,5.6
		c1.2-0.1,2.4-0.5,3.5-1c0.9-0.3,2.1-0.7,2.5-0.8c0.6-0.1,1.1-0.3,1.6-0.5c0.4-0.1,1.6-0.5,2.5-0.7c1-0.2,2.4-0.6,3.1-0.8
		c1.7-0.4,5.3-1,7.5-1.3c2.3-0.3,2.4-0.4,2-1.4c-1.4-2.1-3.5-3.7-6-4.7c-1-0.5-2.1-0.9-3.1-1.3c-0.4-0.1-0.8-0.2-1.2-0.4
		c-1.1-0.6-2.3-1-3.5-1.3c-0.2,0-0.5-0.1-0.5-0.2s-0.4-0.3-0.9-0.4s-0.9-0.3-0.9-0.4c0-0.1-0.3-0.3-0.6-0.4c-1.2-0.7-2.2-1.6-3-2.6
		c-0.1-0.4-0.2-0.8-0.4-1.1c-1-2.9-1.8-5.9-2.3-8.9c-0.1-0.8-0.2-1.5-0.5-2.2C186.1,317,185.7,317.1,185.4,317.2z"/>
	<path id="Path_725" class="st0" d="M172.1,319.7c-2.5,2.2-2.8,2.7-2.8,5.1c0,2.4,0.3,4.7,0.9,7c1-1,1.9-2.1,2.7-3.3
		c0.3-0.5,0.5-1.1,0.7-1.6c1.4-5.7,1.8-9,1-9C173.6,318.4,172.8,319,172.1,319.7z"/>
	<path id="Path_726" class="st0" d="M188.1,319.9c0.1,1.1,0.3,2.7,0.5,3.5c0.2,0.8,0.4,2.1,0.5,2.8c0.7,2.1,2,4.1,3.7,5.7
		c0.3,0,0.5-1,0.6-4.2c0.1-1.6,0.1-3.3,0-5c-1.4-1.9-3.1-3.5-5.2-4.7C188,317.9,188,318.3,188.1,319.9z"/>
	<path id="Path_727" class="st1" d="M143.8,346.3c-1.2,0.1-2.3,0.2-3.4,0.5l-0.7,0.3h0.8c2.3,0.3,4.4,1.1,6.3,2.3
		c1.7,1.2,3.2,2.6,4.4,4.2c0.3,0.4,0.7,0.9,1,1.4c0.2,0.4,0.5,0.8,0.8,1.2c0.2,0.2,1.4,2.2,3.8,6.7c1.1,1.9,2.1,3.7,2.2,3.9
		c0.1,0.2,0.8,1.4,1.6,2.7c0.6,1.3,1.4,2.6,2.3,3.8c0.5,0.5,0.9,1.2,1.2,1.8c0.9,1.3,1.8,2.4,2.9,3.5c0.3,0.2,0.5,0.5,0.7,0.8
		c1.9,2,4,3.7,6.4,5.2c0.7,0.4,1.5,0.6,2.4,0.6c0.4,0,1.1-1.1,1.1-3c0-1.8,0.1-7.3,0.2-7.7c0.5-5.4,0.4-10.9-0.1-16.3
		c-0.4-5-0.7-6.3-1.6-6.3c-0.2,0-0.4-0.1-0.4-0.2s-0.4-0.4-0.8-0.5c-0.5-0.2-1.6-0.6-2.6-1c-0.7-0.3-1.4-0.5-2.1-0.7
		c-0.4-0.1-0.8-0.2-1.2-0.4c-0.4-0.2-0.9-0.3-1.3-0.4c-0.6-0.1-1.2-0.2-1.8-0.4c-1.2-0.4-3.2-0.7-7.5-1.5c-3.6-0.4-7.3-0.7-10.9-0.8
		C146.9,346.1,145.3,346.2,143.8,346.3z"/>
	<path id="Path_728" class="st1" d="M210,346.4c-2.9,0.2-5.8,0.5-8.7,1.1c-3.5,0.6-15.8,15.1-15.9,14.8c-0.1-0.2-0.2,12.5-0.2,13.5
		c0,1.6,0.2,1.4,0.1,2.2c-0.3,2.7-0.3,5.3,0.1,8c1.5-0.3,3-0.9,4.3-1.8c0-0.1,0.2-0.2,0.3-0.2c2.7-1.7,5-3.8,6.9-6.3
		c0-0.1,0.1-0.3,0.2-0.3c1.5-1.6,2.7-3.3,3.7-5.1c0.4-0.7,7.2-12.4,7-12.2c-14.9,9.4-4.9,8.7-4.2,7.6c0.6-1.7,1.5-3.4,2.5-4.9
		c0.5-0.6,0.9-1.2,1.2-1.8c1.1-2,2.4-4.1,3.1-5.2c0.3-0.5,0.7-1.1,0.9-1.4c0.2-0.4,0.5-0.6,0.6-0.6c0.1,0,0.2-0.1,0.2-0.2
		c0.8-1.2,1.8-2.2,3-3.1c0.4-0.3,1-0.8,1.2-1c1.8-1.2,3.9-1.9,6.1-2.2c0.8,0,0.8-0.1,0.4-0.3c-1.3-0.3-2.7-0.5-4-0.5
		C215.8,346.1,212.9,346.1,210,346.4z"/>
	<path id="Path_729" class="st0" d="M131.1,347.8c-1.6,0.5-3,1.4-4.1,2.5c-0.6,0.5-1.2,1.2-1.6,1.9c0,0.2-0.1,0.4-0.2,0.4
		c-0.8,1-1.3,2.1-1.6,3.2c-0.6,2.4-0.6,4.8-0.1,7.2c1.1,3.5,4.2,8.3,5.5,8.3c2-1.6,3.7-3.3,5.3-5.2c2.3-2.6,2.8-3.2,2.8-3.5
		c0-0.2,0.1-0.3,0.2-0.3c0.7-0.5,1.2-1.1,1.7-1.8c0.8-1,1.6-1.9,1.8-2.1s0.7-0.8,1.1-1.4c0.5-0.6,1.1-1.4,1.5-1.8
		c0.4-0.4,0.8-0.9,1.1-1.3c0.3-0.4,0.6-0.8,1-1.1c0.8-0.8,0.5-1.6-0.8-2.2c-0.5-0.2-0.9-0.5-1.3-0.8c-0.1-0.1-0.3-0.2-0.5-0.2
		c-0.5-0.1-1-0.3-1.5-0.5c-0.5-0.3-1.1-0.5-1.6-0.5c-0.3,0-0.7-0.1-0.9-0.3C136.4,347.8,133.7,347.6,131.1,347.8z"/>
	<path id="Path_730" class="st0" d="M224,348.2c-2,0.5-3.9,1.3-5.6,2.3c-0.7,0.3-1.3,0.7-1.9,1.2c0,0.2,6.7,8.1,6.9,8.2
		c0.2,0.1,0.3,0.3,0.3,0.5c0,0.2,0.1,0.4,0.2,0.4c0.1,0,0.5,0.3,0.7,0.7c0.3,0.5,0.7,0.9,1,1.3c0.3,0.3,1.3,1.4,2.2,2.5
		c0.9,1.1,1.8,2,1.9,2.2c0.2,0.2,1.1,1.1,2,2.1c0.6,0.7,1.3,1.3,2,1.8c0.6,0,2.5-2.1,3.8-4.4c3.6-5.5,2.7-12.5-2.2-17
		c-1.8-1.8-4.5-2.6-7.1-2.3C227,347.7,225.5,347.8,224,348.2z"/>
	<path id="Path_731" class="st1" d="M147.4,356.5c-0.4,0.3-0.7,0.8-1,1.2c0,0.2-0.1,0.3-0.2,0.3c-0.1,0-0.4,0.3-0.6,0.6
		c-0.2,0.3-0.7,1.2-1.2,2c-0.8,1.3-2.5,4.2-3.7,6.7c-0.3,0.7-0.5,1.4-0.5,2.2v1.2l2,0.6c2.4,0.7,4.8,1.2,7.3,1.4
		c1.2,0.1,3.1,0.4,4.2,0.5c2.9,0.4,4.8,0.4,4.8-0.1c-0.1-1.2-0.4-2.4-0.9-3.5c-0.2-0.2-0.3-0.4-0.3-0.6c-0.1-0.5-0.2-0.9-0.5-1.4
		c-0.2-0.6-0.6-1.4-0.8-1.8c-1.5-3.2-3.3-6.3-5.4-9.2C149.4,355.4,148.6,355.4,147.4,356.5z"/>
	<path id="Path_732" class="st1" d="M212.7,356.2c-1.8,2.3-3.2,4.8-4.3,7.5c-1,1.4-1.8,2.9-2.4,4.5c-0.3,0.8-0.6,1.5-1,2.3
		c-0.3,0.6-0.4,1.2-0.5,1.9l-0.2,1.3l1.6,0c1.1,0,2.2-0.1,3.3-0.2c0.9-0.1,2.7-0.4,4-0.5c3.3-0.2,6.4-1,9.3-2.3
		c0.4-0.4,0.5-0.6,0.2-1.4c-0.2-0.4-0.3-0.8-0.4-1.2c-1.3-3.2-3.1-6.2-5.2-9c-0.1-0.1-0.2-0.2-0.2-0.4c-0.3-0.6-0.7-1.2-1.2-1.6
		C214.5,355.4,213.7,355.2,212.7,356.2z"/>
	<path id="Path_733" class="st0" d="M226.3,373c-0.1,3-0.4,6-1.1,8.9c-0.5,4.3-0.5,8.7,0.1,13.1c0.9,4.4,3.2,8.5,6.7,11.7l6.6,1.9
		l0-5.2c-0.2-1.2-3.6-2.7-2.8-4.5c0.1-0.3-1.2,1.1-0.8,0.3c0.4-0.8,0.8-1.9,1-2.3c0.8-1.9,1.3-3.8,1.7-5.8c0.4-3.4-0.2-6.9-1.9-10
		c-0.2-0.5-0.5-0.9-0.9-1.3c-0.2,0-0.2-0.2-0.2-0.4c-1.6-2.6-3.6-4.9-6-7l-2.3-2L226.3,373z"/>
	<path id="Path_734" class="st0" d="M133.6,373.2c-1,0.9-1.9,1.9-2.7,3c-0.1,0.2-0.2,0.4-0.3,0.4c-1.4,1.4-2.5,3-3.3,4.7
		c-1.5,2.6-2.2,5.5-1.8,8.4c-0.1,2.1,0.3,4.1,1.1,6c0.3,0.9,0.7,1.8,1.2,2.7c0.2,0.2,0.3,0.5,0.4,0.8c0.1,0.3,0.5,1.4,0.9,2.5
		c0.5,1.3,0.8,2.6,0.8,3.9l0,2l1.8-1.8c0.7-0.6,1.3-1.3,1.8-2.1c0-0.2,0.1-0.3,0.2-0.3c0.2,0,0.7-0.9,2.8-4.7
		c0.2-0.5,0.4-1.1,0.6-1.6c0.2-0.6,0.5-1.7,0.7-2.3c0.4-4.5,0.4-9,0-13.5c-0.8-3.2-1.1-6.5-1-9.8
		C137.2,369.9,136.6,370.3,133.6,373.2z"/>
	<path id="Path_735" class="st0" d="M121.2,373.2c-0.7,0.1-1.3,0.4-1.9,0.6c-0.4,0.2-0.8,0.4-1.3,0.4c-0.2,0-0.4,0.1-0.4,0.3
		c0,0.2-0.2,0.3-0.4,0.3c-1,0-4.5,3.6-5.5,5.6c-0.3,0.6-0.7,1.3-0.8,1.6c-0.9,3.5-1,7.1-0.2,10.7c0.2,0.6,0.4,1.6,0.6,2.1
		c0.1,0.5,0.3,1,0.5,1.5c0.1,0.2,0.5,0.9,0.7,1.4c0.7,1.5,1.4,2.9,2.3,4.2c0.3,0.4,0.5,0.8,0.8,1.3c0.4,1.1,1,0.5,1.1-1.1
		c0.2-1.8,0.7-5.4,1.2-7.2c0.2-0.7,0.4-1.9,0.6-2.7c0.2-1.4,0.8-3.9,1.6-7.3c0.2-1,0.6-2.5,0.8-3.3c0.1-0.7,0.3-1.3,0.6-2
		c0.2-0.5,0.4-1.1,0.5-1.6c0.1-0.5,0.2-1,0.4-1.4c0.2-0.5,0.4-1,0.5-1.5c0.2-0.7,0.3-1.4,0.4-1.6C123.4,373,122.7,372.9,121.2,373.2
		z"/>
	<path id="Path_736" class="st0" d="M239.7,373.4c0.1,0.6,0.2,1.2,0.4,1.7c0.2,0.6,0.6,1.9,0.9,2.8c0.3,0.9,0.6,2.2,0.8,2.9
		c1.8,6.6,3.2,13.3,4.2,20c0.1,1,0.2,1.9,0.5,2.8c0.2,0.4,2.5-2.9,3.5-5.1c0.3-0.7,0.7-1.6,1-2c0.2-0.4,0.4-0.8,0.4-1.2
		c0-0.3,0.1-0.6,0.3-0.8c1.3-1.2,1.3-12.7,0-13.1c-0.2-0.1-0.3-0.3-0.3-0.5c-0.7-1.6-1.7-3-3-4.2c-2.1-1.9-4.7-3.1-7.6-3.6
		C239.9,372.9,239.7,373,239.7,373.4z"/>
	<path id="Path_737" class="st1" d="M142.2,377.6c-0.4,2.7-0.5,5.4-0.2,8.1c0.1,2.1,0.5,4.1,1.2,6.1c0.2,0.3,0.3,0.6,0.3,1
		c0,0.4,0.2,0.9,0.5,1.3c0.2,0.3,0.4,0.6,0.5,0.9c1,2.3,2.2,4.5,3.7,6.6c0.3,0.3,4.8,6.3,5.9,7.8c0.8,1,1.6,2,1.8,2.2
		c0.2,0.2,0.3,0.4,0.3,0.6c0,0.1,0.1,0.3,0.2,0.4c0.7,0.6,1.2,1.3,1.6,2.1c0.1,0.2,0.5,0.8,0.8,1.2c1.7,2.5,2.9,5.3,3.6,8.2
		c0,0.8,0.6,2.2,0.8,1.8c0.1-0.2,0.3-0.3,0.5-0.3c0.9,0,6.3-5.6,8-8.2c1.9-3,3.5-6.2,4.6-9.5c1.1-3.2,1.6-6.5,1.5-9.9l0-4.6
		c0,0-15.4-12.9-15.5-13.1c-1-0.7-2.1-1.2-3.2-1.6c-2.2-0.3-4.5-0.5-6.7-0.5c-3.1-0.1-6.3-0.4-7.1-0.5
		C143,377.1,142.4,377.2,142.2,377.6z"/>
	<path id="Path_738" class="st1" d="M217.7,377.5c-0.8,0.1-4,0.4-7.1,0.5c-2.1,0-4.3,0.2-6.4,0.5c-0.4,0.2-0.8,0.2-1.2,0.3
		c-1.4,0.7-2.7,1.7-3.6,2.8c-1,1-2,2-3.2,2.9c-0.4,0.2-0.7,0.5-1,0.8c-0.5,0.4-1.9,1.6-3.2,2.6c-1.3,1-2.5,2-2.7,2.2
		c-0.2,0.2-0.8,0.6-1.4,1.1c-2.9,2.1-2.7,1.7-2.8,5.2c-0.1,4.7,0.7,9.3,2.5,13.7c1.1,2.5,2.4,4.9,3.9,7.2c0.3,0.4,0.5,0.7,0.8,1.1
		c1.7,2.3,3.7,4.4,6,6.1c0.2,0,0.3,0.1,0.3,0.3c0,0.1,0.4,0.4,0.9,0.7c0.8,0.4,0.9,0.4,0.9-0.1c0.4-1.9,0.9-3.7,1.6-5.5
		c0.7-1.5,1.5-3,2.3-4.4c0.6-0.6,1.1-1.3,1.5-2.1c0.3-0.4,0.6-0.8,0.9-1.2c0.4-0.4,0.7-0.8,0.9-1.3c0-0.2,0.1-0.3,0.2-0.3
		c0.4-0.3,0.8-0.7,1.1-1.2c0.4-0.6,0.8-1.2,1.3-1.7c2-2.3,3.9-4.8,5.5-7.4c0-0.2,0.1-0.3,0.2-0.4c0.6-0.7,1-1.5,1.4-2.3
		c0.9-1.6,1.6-3.2,2.2-4.9c1.2-3.3,1.7-6.8,1.4-10.2v-5.3l-0.9,0C219.2,377.3,218.4,377.4,217.7,377.5z"/>
	<path id="Path_739" class="st0" d="M126.5,383.4c-0.2,0.3-3.2,5-3.2,5.2c0,0.3-0.1,0.5-0.3,0.8c-0.3,0.3-0.5,0.7-1.4,4.2
		c-0.2,0.8-0.6,2-0.7,2.6c-0.5,2.1-0.5,4.3,0.2,6.4c1,1.2,1.8,2.5,2.4,3.9c0.8,8.7,6.9,3.4,7.5-1.9c0.1-1.1-2.8-6.4-3-10.5
		c-0.1-1.7-0.3-3.5-0.6-5.2C127.2,387.5,126.8,382.9,126.5,383.4z"/>
	<path id="Path_740" class="st0" d="M235.3,387.9c-1.3,2.1-2.2,4.5-2.5,6.9c0,7,4.7,10.2,6.3,10.2c1.4,0,2.7-2.2,3.2-3.7
		c0.4-1.1,0.4-2.3,0.1-3.4c-0.4-2.4-1-4.8-1.8-7.1c-0.1-0.3-0.5-1.3-0.8-2.3c-1.1-2.2-2.4-4.3-3.8-6.4
		C235.9,382,235.4,387.2,235.3,387.9z"/>
	<path id="Path_741" class="st0" d="M119.2,399.8c-1,0.4-1,8.7-1,9.7c0,0.3-0.1,0.5-0.3,0.5c-0.2,0-0.4,0.7-0.5,1.6
		c-0.1,0.7-0.2,1.5-0.5,2.2c-0.2,0.5-0.3,1-0.2,1.5l0.1,0.9l2.3-2.2c1.3-1.2,4.9-1.7,5.1-2.1c0.3-0.4-1.6-1.5-1.4-1.6
		c0.2-0.1,0.4-0.4,0.4-0.6c0-0.2,0.1-0.4,0.3-0.4s0.4-0.3,0.5-0.7c0.1-0.4,0.3-0.7,0.5-0.7c0.4,0,0.3-1.6,0-1.8
		C124,405.8,119.7,399.7,119.2,399.8z"/>
	<path id="Path_742" class="st0" d="M237.1,405.8c-0.7,0.1-0.7,0.2-0.6,1.4c0.1,0.7-4.4-0.8-4.2-0.6c0.2,0.2-0.3,0.9-0.1,1.2
		s8.2,4.9,8.6,5.4c0.4,0.5,0.9,0.8,1.1,0.7s0.3,0,0.2,0.2c-0.1,0.2,0.1,0.5,0.3,0.6c0.3,0.1,0.4,0.3,0.5,0.5c0,0.2,0.2,0.4,0.5,0.5
		c0.4,0.1,0.5-0.2,0.5-1.9c0.1-0.7,0-1.5-0.3-2.2c-0.3-0.4-0.4-0.9-0.5-1.4c-0.1-0.7-0.3-10.1-1.2-10.6
		C241.1,399.2,238.7,405.5,237.1,405.8z"/>
	<path id="Path_743" class="st0" d="M110,413c-2.2,1.7-4.1,3.6-5.9,5.7c0,0.2-0.1,0.4-0.3,0.4c-0.2,0-1,1-2.6,3.4
		c-0.5,0.8-3,5.3-3.5,6.5c-0.4,0.9-1.6,4.1-2.8,7.7c-0.6,1.7-1.1,3.4-1.3,5.2c-0.2,1-0.5,5.8-0.5,6.5c-0.3,2.7-0.7,4.1,0.5,4.4
		c1.3,0.3,2.2-0.8,2.4-1.9c0.1-0.5,0.2-1,0.5-1.4c0.2-0.3,0.8-2,1.5-3.8c0.6-1.8,1.7-4.5,2.3-6c0.6-1.5,1.2-3,1.3-3.4
		c0.1-0.4,0.3-0.8,0.6-1.2c0.3-0.3,0.4-0.7,0.4-1.1c0-0.3,0.1-0.5,0.3-0.8c0.3-0.3,0.4-0.7,0.5-1c0.3-1.2,0.8-2.4,1.4-3.5
		c0.2-0.4,0.4-0.9,0.5-1.4c0-0.2,0.1-0.4,0.3-0.6c0.3-0.3,0.4-0.7,0.5-1c0.3-1.2,0.8-2.4,1.4-3.5c0.2-0.4,0.4-0.9,0.5-1.4
		c0-0.2,0.1-0.5,0.2-0.6c0.4-0.6,0.7-1.2,0.9-1.9c0.4-0.9,0.8-1.9,0.9-2.2c1.3-2.7,1.5-3.2,1.5-3.3C111.3,412.3,110.5,412.6,110,413
		z"/>
	<path id="Path_744" class="st0" d="M251.7,412.6c0.1,0.2,0.1,0.4,0.3,0.6c0.2,0.2,0.5,1,0.8,1.7c0.3,0.7,0.8,1.7,1,2.3
		s0.7,1.7,1,2.5c0.2,0.6,0.4,1.1,0.8,1.6c0.2,0.2,0.3,0.4,0.3,0.6c0.1,0.4,0.2,0.8,0.4,1.2c0.3,0.5,0.5,1,0.6,1.6
		c0.1,0.4,0.2,0.7,0.5,1c0.2,0.2,0.3,0.4,0.3,0.6c0.1,0.4,0.2,0.9,0.4,1.3c0.5,1,2.1,5.2,2.4,6.2c0.1,0.3,0.3,0.7,0.5,1
		c0.2,0.3,0.3,0.5,0.4,0.8c0.1,0.3,0.7,1.8,1.2,3.3c0.6,1.5,1.6,4.2,2.3,6c0.4,1.3,0.9,2.5,1.5,3.7c0.2,0.3,0.3,0.6,0.3,0.9
		c0.2,1,0.6,1.9,1.3,2.6c0.4,0.2,1.7-0.3,2.5-1.1c0.6-0.6,0.7-0.8,0.5-1.9c-0.1-0.6-0.3-1.3-0.5-1.9c-0.2-0.5-0.3-1-0.3-1.5
		c-0.3-2-0.7-3.9-1.3-5.8c-0.2-0.6-0.4-1.6-0.5-2.2c-0.3-1.4-2.5-7.5-3.2-8.8c-1.7-3.6-3.8-7-6.3-10.2
		C256.4,415.5,251.7,411.7,251.7,412.6z"/>
	<path id="Path_745" class="st0" d="M109.5,415.3c-1.6,3.2-4.1,1.4-5.5,3.9c-0.8,1.5-1.1,6.9-1.7,8.1c-0.6,1.3-1.2,3.4-1.3,3.7
		c-1.2,2.7-2.3,5.5-3.1,8.3c-0.3,1.1-1.7,4.3-1.7,5.1l-0.7,7.2l4.9-4.7c0.7-0.8,3.2-4.1,3.9-5.2c2.7-4.4,4.9-9,6.5-13.8
		c0.3-1,0.7-2.4,1-3.1c0.2-0.6,0.4-1.2,0.4-1.9c0.1-0.9,0.3-1.8,0.5-2.6c0.3-1.3,0.4-2.6,0.4-3.8l-1.6-4.1L109.5,415.3z"/>
	<path id="Path_746" class="st0" d="M249.7,415.9c0.5,4,0.9,6.1,1.1,7.2c0.2,0.7,0.4,1.7,0.5,2.3c0.4,1.6,0.9,3.2,1.6,4.8
		c0.9,2.5,1.4,3.7,1.7,4.3c0.2,0.2,0.8,1.5,1.5,2.8c1.5,3.1,3.4,6,5.8,8.7c0.2,0,0.3,0.2,0.3,0.4c0,0.2,5.3,4.8,5.6,5.1
		c0.8,0.6,0.2-4.6-0.3-8.4c-0.2-1.3-2.8-2.3-3-2.7c3.5-4.1-4.7-16.4-8.3-19.3c-2.1-1.7-1.1-2-1.4-5c0-1.7-1.3-3.1-3-3.5
		C250.8,413.5,250.1,414.7,249.7,415.9z"/>
	<path id="Path_747" class="st1" d="M153.7,418.1c-1.2,2.2-1.1,6.9,0.2,13.9c0.2,1.1,0.4,2.1,0.5,3.2c0,0.9,0.1,1,0.8,1
		c1.2-0.3,2.4-0.7,3.5-1.3c2.5-1.2,2.7-1.4,2.8-2.2c-0.8-3.2-1.8-6.4-3.2-9.5c-0.2-0.3-0.5-1-0.8-1.7c-0.5-1.6-1.3-3.1-2.5-4.4
		C154.5,416.9,154.3,417,153.7,418.1z"/>
	<path id="Path_748" class="st1" d="M177.4,417.1c-0.2,0.2-0.3,0.4-0.4,0.6c-0.1,0.2-0.2,0.5-0.4,0.6c-0.2,0.2-0.5,0.5-0.7,0.7
		s-0.8,1.1-1.5,2c-0.7,0.9-1.8,2.3-2.5,3.2c-0.5,0.6-1,1.2-1.3,1.8c0,0.1-0.1,0.3-0.3,0.3c-0.4,0.3-0.8,0.6-1,1
		c-0.5,0.7-1.1,1.4-1.7,2c-1.7,1.7-1.9,2-1.5,3.2c0.2,0.6,0.5,1.1,0.6,1.1c0.2,0,0.3,0.1,0.3,0.3c0.4,0.8,0.9,1.5,1.5,2.2
		c0.1,0.1,1,1.1,1.9,2.2c1,1.1,2.2,2.5,2.8,2.9c0.4,0.3,0.7,0.6,1,1c0.1,0.2,0.3,0.5,0.5,0.6c0.9,0.7,1.6,1.6,2.2,2.5
		c0,0.1,0.2,0.3,0.4,0.3c0.9,0,1.2-4,1.2-15.8c0-9.5-0.1-11.4-0.5-12.2C177.8,416.9,177.7,416.9,177.4,417.1z"/>
	<path id="Path_749" class="st1" d="M184.4,420c-0.6,4.8-0.1,24.9,0.6,25.5c0.3,0.2,0.5,0.1,3.2-2.9c1.2-1.3,2.6-2.7,3.1-3.3
		c1.2-1.1,2.3-2.4,3.2-3.7c0.1-0.2,0.2-0.4,0.4-0.5c0.9-1,1.6-2.2,2-3.5c-0.2-0.6-0.5-1.1-1-1.6c-1.4-1.4-2.6-2.8-3.8-4.4
		c-0.3-0.4-0.6-0.8-1-1.1c-0.2-0.1-0.2-0.3-0.2-0.5s-0.1-0.4-0.2-0.4c-0.7-0.7-1.3-1.4-1.8-2.3c-0.6-0.9-1.3-1.7-1.9-2.5
		c-0.6-0.5-1-1.2-1.3-1.9c-0.1-0.2-0.4-0.5-0.5-0.5C184.9,416.8,184.7,417.9,184.4,420z"/>
	<path id="Path_750" class="st1" d="M207.7,417.2c-0.2,0.2-0.3,0.4-0.4,0.7c0,0.2-0.1,0.4-0.3,0.4c-0.2,0-0.4,0.3-0.5,0.7
		c-0.1,0.3-0.2,0.6-0.4,0.9c-0.4,0.6-0.7,1.1-0.9,1.8c-0.4,0.9-0.8,1.9-1,2.2c-0.3,0.5-1.9,5.1-2.8,7.7c-0.4,1.2-0.4,1.6-0.1,1.8
		c2,1.2,4.1,2.1,6.3,2.8c0.6,0,0.8-0.3,1.2-3.3c0.2-1.3,0.5-2.8,0.6-3.4c0.3-1.7,0.4-3.5,0.5-5.3c0.3-1.8,0.2-3.6-0.3-5.3
		C209,417.4,208.2,416.7,207.7,417.2z"/>
	<path id="Path_751" class="st0" d="M123.7,420.7c-1.5,0.8-3.2,1.3-5,1.5c-0.5-0.3-1.7,0.5-2.8,1.8c-1.6,2-3,4-4.3,6.1
		c-0.2,0.4-0.5,0.8-0.8,1.2c-0.2,0.2-1.3,2.2-3.9,6.8c-1.8,3-3.4,6-4.8,9.1c0,0.2-0.1,0.4-0.3,0.4c-0.2,0-0.4,0.4-0.5,0.8
		c-0.1,0.5-0.3,0.8-0.5,0.8c-0.2,0-0.3,0.3-0.5,0.7c-0.1,0.3-0.2,0.6-0.5,0.9c-0.2,0.3-0.4,0.6-0.5,0.9l-0.2,0.8l1.3-0.6
		c0.7-0.4,1.4-0.8,2-1.3c0.3-0.2,0.6-0.4,0.9-0.6c2.2-1.6,4.3-3.4,6.3-5.3c4.1-3.8,5.8-5.5,5.8-5.9c0-0.1,0.1-0.2,0.2-0.2
		c1-0.9,1.8-1.9,2.5-3c0-0.1,0.2-0.3,0.4-0.4c0.4-0.3,0.7-0.7,1-1.2c0.4-0.7,0.9-1.4,1.4-2.1c0.4-0.4,0.6-0.9,0.8-1.4
		c0-0.2,0.1-0.4,0.3-0.4s0.4-0.3,0.5-0.6c0.4-1,0.8-2,1.4-3c0.3-1,0.6-2,0.7-3c0.5-2.3,0.5-2.7,0.1-3
		C124.7,420.2,124.5,420.2,123.7,420.7z"/>
	<path id="Path_752" class="st0" d="M238,422.9c0,0.9,0.2,1.9,0.5,2.8c0.2,0.2,0.3,0.4,0.3,0.7c0.1,0.5,0.3,1,0.6,1.5
		c0.3,0.4,0.5,0.9,0.6,1.4c0,0.2,0.1,0.3,0.2,0.4c0.4,0.4,0.7,0.9,1,1.4c0.4,0.7,0.9,1.5,1,1.8c1.8,2.6,2.3,3.3,2.6,3.3
		c0.2,0,0.3,0.2,0.3,0.4c0,0.2,0.1,0.4,0.2,0.4s0.5,0.4,0.7,0.8c0.5,0.6,1,1.2,1.6,1.8c0.4,0.3,0.8,0.7,1.1,1.2
		c0,0.2,8.2,7.6,9.4,8.5c1.6,1.4,3.4,2.4,5.4,3.2c0.1-0.1-1.1-2.3-2.5-5s-2.7-5.1-2.7-5.3c0-0.2-0.1-0.3-0.3-0.3s-0.4-0.4-0.5-0.8
		c-0.1-0.4-0.3-0.8-0.5-0.8c-0.2,0-0.3-0.4-0.5-0.8c-0.1-0.4-0.3-0.8-0.5-0.8c-0.2,0-0.3-0.4-0.5-0.8c-0.1-0.4-0.3-0.8-0.4-0.8
		c-0.1,0-0.3-0.3-0.5-0.7c-0.1-0.3-0.2-0.6-0.4-0.9c-0.6-0.8-1.1-1.6-1.5-2.5c-1.3-2.4-2.7-4.7-4.4-6.9c-2.3-3.2-2.8-3.7-4.4-3.8
		c-1.5-0.1-3-0.5-4.3-1.2C237.9,420,237.9,420,238,422.9z"/>
	<path id="Path_753" class="st1" d="M157.9,437.3c-0.6,0.1-1.1,0.3-1.6,0.5c-1.8,0.9-3.4,3.8-4.6,8.1c-0.6,2.8-0.7,5.6-0.3,8.4
		l0.3,0.8l0.7-1.2c0.7-1.3,1.6-2.4,2.8-3.4c0.8-0.8,1.7-1.5,2.7-2.1c0.4-0.2,0.9-0.4,1.3-0.7c2.1-1.2,4.4-2.1,6.8-2.8
		c1.8-0.6,3.6-1.1,5.4-1.4c0.8,0,0.5-0.5-0.8-1.8c-1.6-1.3-3.4-2.4-5.3-3.1c-0.3,0-0.5-0.1-0.8-0.3c-1.3-0.6-2.7-0.9-4.1-1
		C159.4,437.2,158.6,437.2,157.9,437.3z"/>
	<path id="Path_754" class="st1" d="M203.6,437.2c-3.1,0.4-6.2,1.4-8.8,2.9c-1.3,0.9-2.5,2-3.4,3.2c0,0.1,0.4,0.3,0.8,0.4
		c1.7,0.3,3.3,0.7,4.9,1.2c0.4,0.2,0.7,0.3,1.1,0.3c0.3,0,0.6,0.1,0.8,0.3c0.3,0.1,1.3,0.6,2.2,1c4.6,1.9,8.6,5.3,9.6,8.1
		c0.4,1,0.7,0.4,0.9-1.6c0.6-5.6-1.4-12.4-4.3-14.6C206.4,437.4,205,437,203.6,437.2z"/>
</g>
</svg>
