<?xml version="1.0" encoding="utf-8"?>
<!-- Generator: Adobe Illustrator 24.2.3, SVG Export Plug-In . SVG Version: 6.00 Build 0)  -->
<svg version="1.1" id="Layer_1" xmlns="http://www.w3.org/2000/svg" xmlns:xlink="http://www.w3.org/1999/xlink" x="0px" y="0px"
	 viewBox="0 0 200 200" style="enable-background:new 0 0 200 200;" xml:space="preserve">
<style type="text/css">
	.st0{fill:#E0DFDE;}
	.st1{fill:#89C0CF;}
</style>
<g id="Group_157" transform="translate(-81.863 -286)">
	<path id="Path_723" class="st0" d="M177,319.5c-0.3,1.4-0.7,2.9-0.9,3.4c-0.3,0.7-0.5,1.5-0.6,2.2c-0.9,4-1.6,5.5-3.1,6.9
		c-3.1,2.1-6.6,3.7-10.4,4.7c-0.6,0.2-1.1,0.4-1.1,0.6c0,0.1-0.2,0.2-0.5,0.2c-1.2,0.3-2.3,0.8-3.3,1.5c-0.1,0.1-0.3,0.2-0.5,0.2
		c-1.2,0-5,4.3-4.4,4.9c0.7,0.2,1.4,0.4,2.1,0.4c3,0.4,5.9,0.9,8,1.3c4.3,0.9,8.5,2.1,12.6,3.6c0.6,0.3,1.3,0.5,2,0.6
		c0.2,0,0.4-0.8,0.4-2c0-1.1,0.2-3.4,0.3-5.2c0.2-1.8,0.5-6.1,0.6-9.5c0.1-4.9,0.6-9.8,1.3-14.7c0.3-1.2,0.2-1.3-1.2-1.7l-0.9-0.2
		L177,319.5z"/>
	<path id="Path_724" class="st0" d="M184.3,317.2c-1.3,0.4-1.3,0.3-0.6,5.5c0.5,3.8,1,11,1.5,21.2c0.2,3.3,0.4,6,0.4,6.1
		c1.3-0.1,2.6-0.5,3.8-1.1c1-0.4,2.2-0.7,2.7-0.9c0.6-0.1,1.2-0.3,1.8-0.5c0.5-0.1,1.7-0.5,2.7-0.7c1.1-0.2,2.6-0.6,3.4-0.8
		c1.8-0.4,5.7-1.1,8.1-1.4c2.4-0.3,2.5-0.4,2.1-1.5c-1.5-2.3-3.8-4-6.5-5c-1.1-0.5-2.2-1-3.4-1.4c-0.4-0.1-0.9-0.2-1.3-0.4
		c-1.2-0.6-2.5-1-3.8-1.3c-0.2,0-0.5-0.1-0.5-0.3c0-0.1-0.4-0.4-1-0.5s-1-0.3-1-0.4s-0.3-0.3-0.6-0.4c-1.3-0.7-2.4-1.7-3.3-2.9
		c-0.1-0.4-0.2-0.8-0.5-1.2c-1.1-3.1-2-6.4-2.5-9.6c-0.1-0.8-0.3-1.6-0.5-2.4C185.1,317.1,184.7,317.1,184.3,317.2z"/>
	<path id="Path_725" class="st0" d="M172.1,320c-2.7,2.4-3.1,3-3.1,5.5c0,2.6,0.3,5.1,1,7.6c1.1-1.1,2.1-2.3,2.9-3.5
		c0.3-0.6,0.5-1.2,0.7-1.8c1.5-6.1,2-9.7,1.1-9.7C173.8,318.6,172.9,319.2,172.1,320z"/>
	<path id="Path_726" class="st0" d="M187.9,320.2c0.1,1.2,0.4,2.9,0.5,3.8s0.5,2.2,0.6,3c0.8,2.3,2.2,4.4,4,6.1
		c0.3,0,0.5-1.1,0.6-4.6c0.1-1.8,0.1-3.6,0-5.4c-1.5-2-3.3-3.8-5.5-5.1C187.8,318,187.8,318.4,187.9,320.2z"/>
	<path id="Path_727" class="st0" d="M143.1,345.4c-1.3,0.1-2.5,0.2-3.7,0.5l-0.8,0.3h0.9c2.4,0.3,4.8,1.2,6.8,2.5
		c1.8,1.3,3.4,2.8,4.8,4.5c0.4,0.5,0.7,1,1,1.5c0.3,0.4,0.6,0.9,0.9,1.3c0.2,0.2,1.5,2.4,4.1,7.2c1.2,2.1,2.2,4,2.4,4.3
		s0.9,1.6,1.7,2.9c0.7,1.4,1.5,2.8,2.5,4.2c0.5,0.6,1,1.3,1.3,2c0.9,1.4,2,2.6,3.2,3.8c0.3,0.2,0.5,0.5,0.7,0.8c2,2.1,4.3,4,6.9,5.6
		c0.8,0.4,1.7,0.7,2.5,0.7c0.5,0,1.2-1.2,1.2-3.2c0-1.9,0.1-7.9,0.2-8.3c0.5-5.9,0.5-11.7-0.1-17.6c-0.4-5.4-0.7-6.8-1.7-6.8
		c-0.2,0-0.4-0.1-0.4-0.3s-0.4-0.4-0.9-0.6c-0.5-0.2-1.8-0.6-2.8-1c-0.7-0.3-1.5-0.6-2.3-0.8c-0.5-0.1-0.9-0.2-1.3-0.4
		c-0.5-0.2-0.9-0.4-1.5-0.4c-0.7-0.1-1.3-0.2-1.9-0.4c-1.3-0.4-3.4-0.8-8-1.6c-3.9-0.5-7.8-0.8-11.8-0.8
		C146.5,345.2,144.7,345.3,143.1,345.4z"/>
	<path id="Path_728" class="st0" d="M210,345.4c-3.1,0.2-6.3,0.6-9.3,1.2c-3.7,0.7-17,16.3-17.1,16c-0.1-0.2-0.3,13.5-0.3,14.6
		c0,1.8,0.2,1.6,0.1,2.3c-0.3,2.9-0.3,5.8,0.1,8.6c1.7-0.4,3.2-1,4.6-1.9c0-0.1,0.2-0.3,0.3-0.2c2.9-1.9,5.4-4.2,7.4-6.8
		c0-0.2,0.1-0.3,0.2-0.4c1.6-1.7,2.9-3.6,4-5.5c0.4-0.7,7.8-13.4,7.5-13.2c-16,10.2-5.2,9.4-4.5,8.3c0.7-1.8,1.6-3.6,2.7-5.3
		c0.5-0.6,1-1.3,1.3-2c1.2-2.2,2.5-4.4,3.4-5.6c0.3-0.5,0.8-1.2,1-1.6s0.5-0.6,0.7-0.6c0.1,0,0.2-0.1,0.2-0.3c0.9-1.3,2-2.4,3.2-3.4
		c0.5-0.4,1-0.8,1.3-1.1c1.9-1.3,4.2-2.1,6.6-2.4c0.8,0,0.9-0.1,0.4-0.3c-1.4-0.3-2.9-0.5-4.3-0.6
		C216.2,345.1,213.1,345.1,210,345.4z"/>
	<path id="Path_729" class="st0" d="M131.4,347.4c-1.7,0.5-3.2,1.5-4.4,2.7c-0.7,0.6-1.3,1.2-1.7,2c0,0.2-0.1,0.4-0.2,0.4
		c-0.8,1-1.4,2.2-1.8,3.5c-0.6,2.6-0.6,5.2-0.1,7.8c1.2,3.7,4.5,9,5.9,9c2.1-1.7,4-3.6,5.7-5.6c2.5-2.8,3.1-3.5,3.1-3.8
		c0-0.2,0.1-0.3,0.2-0.3c0.7-0.6,1.3-1.2,1.8-1.9c0.8-1.1,1.7-2.1,1.9-2.3c0.2-0.2,0.7-0.9,1.2-1.5s1.2-1.5,1.6-2
		c0.5-0.4,0.9-0.9,1.2-1.4c0.3-0.4,0.7-0.8,1.1-1.2c0.9-0.9,0.5-1.7-0.9-2.4c-0.5-0.2-1-0.5-1.4-0.9c-0.1-0.1-0.3-0.2-0.5-0.2
		c-0.6-0.1-1.1-0.3-1.6-0.6c-0.5-0.3-1.1-0.5-1.8-0.6c-0.4,0-0.7-0.1-1-0.4C137,347.3,134.2,347.1,131.4,347.4z"/>
	<path id="Path_730" class="st0" d="M223.2,347.7c-2.1,0.6-4.2,1.4-6,2.5c-0.7,0.4-1.4,0.8-2,1.3c0,0.3,7.2,8.8,7.4,8.9
		c0.2,0.1,0.3,0.3,0.3,0.5c0,0.2,0.1,0.4,0.2,0.4s0.5,0.4,0.8,0.8c0.3,0.5,0.7,1,1.1,1.4c0.3,0.3,1.4,1.5,2.4,2.6
		c1,1.1,1.9,2.2,2.1,2.4c0.2,0.2,1.2,1.2,2.2,2.3c0.6,0.7,1.4,1.4,2.2,1.9c0.7,0,2.7-2.3,4.1-4.7c3.9-5.9,2.9-13.5-2.4-18.4
		c-1.9-1.9-4.8-2.8-7.6-2.4C226.3,347.2,224.7,347.3,223.2,347.7z"/>
	<path id="Path_731" class="st0" d="M147.5,356.1c-0.5,0.4-0.8,0.8-1,1.3c0,0.2-0.1,0.4-0.2,0.4s-0.5,0.3-0.7,0.6
		c-0.2,0.4-0.8,1.3-1.3,2.1c-0.9,1.3-2.6,4.5-4,7.3c-0.3,0.8-0.5,1.5-0.5,2.4v1.3l2.2,0.6c2.5,0.8,5.1,1.3,7.8,1.6
		c1.3,0.1,3.4,0.4,4.5,0.6c3.2,0.4,5.2,0.4,5.2-0.1c-0.1-1.3-0.5-2.6-1-3.8c-0.2-0.2-0.3-0.4-0.3-0.7c-0.1-0.5-0.3-1-0.5-1.5
		c-0.2-0.6-0.7-1.5-0.9-2c-1.6-3.5-3.6-6.8-5.8-10C149.6,354.9,148.9,354.9,147.5,356.1z"/>
	<path id="Path_732" class="st0" d="M212.4,355.8c-1.9,2.5-3.5,5.2-4.6,8.1c-1,1.5-1.9,3.1-2.6,4.8c-0.3,0.8-0.6,1.6-1,2.4
		c-0.3,0.6-0.5,1.3-0.5,2l-0.2,1.4l1.7,0c1.2,0,2.3-0.1,3.5-0.3c1-0.1,2.9-0.4,4.3-0.6c4.8-0.6,9.3-1.7,10.1-2.5
		c0.5-0.4,0.5-0.7,0.2-1.5c-0.2-0.4-0.3-0.9-0.4-1.3c-1.4-3.4-3.3-6.7-5.5-9.7c-0.2-0.1-0.2-0.3-0.2-0.4c-0.3-0.7-0.8-1.3-1.3-1.8
		C214.3,355,213.4,354.8,212.4,355.8z"/>
	<path id="Path_733" class="st1" d="M225.6,371.6c-0.1,3.2-0.5,6.4-1.2,9.6c-0.5,4.7-0.5,9.4,0.1,14.1c1,4.8,3.5,9.2,7.2,12.6
		l7.1,2.1l0-5.6c-0.2-1.3-3.8-3-3-4.8c0.1-0.3-1.3,1.2-0.9,0.3s0.9-2,1.1-2.5c0.8-2,1.4-4.1,1.8-6.2c0.5-3.7-0.3-7.4-2.1-10.8
		c-0.2-0.5-0.5-1-0.9-1.4c-0.2,0-0.3-0.2-0.3-0.4c-1.7-2.8-3.9-5.3-6.4-7.6l-2.5-2.2L225.6,371.6z"/>
	<path id="Path_734" class="st1" d="M134.1,371.8c-1.1,1-2,2.1-2.9,3.2c-0.1,0.2-0.2,0.4-0.4,0.4c-1.5,1.5-2.6,3.2-3.5,5.1
		c-1.7,2.8-2.3,6-1.9,9.1c-0.1,2.2,0.3,4.5,1.2,6.5c0.4,1,0.8,2,1.3,2.9c0.2,0.3,0.4,0.6,0.5,0.9c0.1,0.3,0.5,1.5,1,2.6
		c0.6,1.4,0.9,2.8,0.8,4.3l0,2.2l1.9-1.9c0.8-0.7,1.4-1.5,1.9-2.3c0-0.2,0.1-0.4,0.2-0.4c0.2,0,0.8-1,3-5.1c0.3-0.6,0.5-1.2,0.6-1.8
		c0.2-0.7,0.5-1.8,0.7-2.4c0.4-4.9,0.4-9.7,0-14.6c-0.8-3.5-1.2-7.1-1.1-10.6C137.9,368.3,137.2,368.7,134.1,371.8z"/>
	<path id="Path_735" class="st1" d="M123.3,371.9c-0.7,0.2-1.4,0.4-2.1,0.7c-0.4,0.2-0.9,0.4-1.4,0.5c-0.2,0-0.4,0.1-0.4,0.3
		c0,0.2-0.2,0.3-0.4,0.3c-1,0-4.8,3.9-5.9,6c-0.4,0.6-0.7,1.4-0.9,1.7c-1,3.8-1.1,7.7-0.2,11.5c0.2,0.6,0.5,1.7,0.6,2.3
		c0.1,0.6,0.3,1.1,0.6,1.6c0.1,0.3,0.5,1,0.8,1.5c0.7,1.6,1.6,3.1,2.5,4.6c0.3,0.4,0.6,0.9,0.8,1.4c0.4,1.1,1,0.5,1.2-1.2
		c0.2-1.9,0.8-5.8,1.3-7.8c0.2-0.8,0.5-2.1,0.6-2.9c0.3-1.6,0.9-4.2,1.7-7.9c0.2-1.1,0.6-2.6,0.8-3.5c0.1-0.7,0.4-1.4,0.7-2.1
		c0.3-0.6,0.4-1.2,0.5-1.8c0.1-0.5,0.2-1.1,0.5-1.6c0.3-0.5,0.5-1.1,0.6-1.6c0.2-0.7,0.4-1.5,0.4-1.8
		C125.8,371.7,124.9,371.6,123.3,371.9z"/>
	<path id="Path_736" class="st1" d="M237.4,372.2c0.1,0.6,0.2,1.3,0.5,1.9c0.2,0.7,0.6,2.1,0.9,3c0.3,1,0.7,2.4,0.9,3.1
		c1.9,7.1,3.4,14.3,4.5,21.6c0.1,1,0.3,2,0.5,3c0.2,0.4,2.7-3.1,3.7-5.5c0.3-0.7,0.8-1.7,1-2.1c0.2-0.4,0.4-0.9,0.5-1.3
		c0-0.3,0.1-0.6,0.3-0.9c1.5-1.3,1.5-13.7,0-14.2c-0.2-0.1-0.3-0.3-0.3-0.6c-0.7-1.7-1.8-3.2-3.2-4.5c-2.2-2-5.1-3.4-8.2-3.9
		C237.5,371.6,237.4,371.7,237.4,372.2z"/>
	<path id="Path_737" class="st0" d="M141.3,375c-0.4,2.9-0.5,5.8-0.3,8.7c0.1,2.2,0.6,4.5,1.3,6.6c0.2,0.3,0.3,0.7,0.3,1.1
		c0,0.5,0.2,0.9,0.5,1.3c0.3,0.3,0.4,0.6,0.5,1c1,2.5,2.4,4.9,3.9,7.1c0.3,0.3,5.1,6.9,6.4,8.5c0.9,1.1,1.7,2.1,1.9,2.4
		c0.2,0.2,0.3,0.4,0.3,0.6c0,0.2,0.1,0.3,0.3,0.4c0.7,0.7,1.3,1.5,1.8,2.3c0.1,0.2,0.5,0.8,0.8,1.3c1.8,2.7,3.1,5.8,3.9,8.9
		c0,0.9,0.7,2.4,0.9,1.9c0.1-0.2,0.3-0.3,0.5-0.4c1,0,6.8-6,8.6-8.8c2.1-3.3,3.8-6.7,5-10.3c1.2-3.4,1.7-7.1,1.6-10.7l0-4.9
		c0,0-16.5-13.9-16.7-14.1c-1.1-0.7-2.2-1.3-3.5-1.7c-2.4-0.4-4.8-0.6-7.2-0.6c-3.3-0.1-6.7-0.4-7.6-0.6
		C142.2,374.5,141.5,374.5,141.3,375z"/>
	<path id="Path_738" class="st0" d="M218.4,374.9c-0.8,0.1-4.3,0.4-7.6,0.6c-2.3,0-4.6,0.2-6.8,0.6c-0.4,0.2-0.8,0.3-1.3,0.3
		c-1.5,0.7-2.9,1.8-3.9,3.1c-1,1.1-2.2,2.2-3.4,3.1c-0.4,0.2-0.7,0.5-1,0.8c-0.5,0.5-2,1.8-3.4,2.9s-2.7,2.2-2.9,2.4
		c-0.2,0.2-0.9,0.7-1.5,1.2c-3.2,2.3-2.9,1.8-3,5.7c-0.1,5,0.8,10.1,2.7,14.8c1.2,2.7,2.6,5.3,4.2,7.7c0.3,0.4,0.6,0.8,0.8,1.2
		c1.8,2.5,4,4.7,6.4,6.6c0.2,0,0.3,0.1,0.3,0.3c0,0.1,0.5,0.5,1,0.7c0.9,0.4,1,0.4,1-0.1c0.4-2,0.9-4,1.7-5.9
		c0.7-1.6,1.6-3.2,2.5-4.7c0.6-0.7,1.2-1.4,1.6-2.2c0.3-0.5,0.6-0.9,1-1.3c0.4-0.4,0.7-0.9,1-1.4c0-0.2,0.1-0.3,0.3-0.3
		c0.5-0.4,0.9-0.8,1.2-1.3c0.4-0.6,0.9-1.3,1.4-1.9c2.2-2.5,4.1-5.2,5.9-8c0-0.2,0.1-0.3,0.2-0.4c0.6-0.8,1.1-1.6,1.5-2.4
		c1-1.7,1.8-3.5,2.4-5.3c1.3-3.6,1.8-7.3,1.5-11v-5.7l-1,0C220,374.7,219.1,374.7,218.4,374.9z"/>
	<path id="Path_739" class="st1" d="M126.8,382.1c-0.2,0.4-3.5,5.4-3.5,5.7c0,0.3-0.1,0.6-0.3,0.8c-0.3,0.3-0.5,0.8-1.5,4.6
		c-0.3,0.9-0.6,2.1-0.8,2.8c-0.6,2.3-0.5,4.7,0.2,7c1.1,1.3,1.9,2.7,2.6,4.3c0.8,9.4,7.5,3.7,8.1-2.1c0.1-1.2-3-7-3.2-11.3
		c-0.1-1.9-0.3-3.7-0.7-5.6C127.6,386.4,127.2,381.5,126.8,382.1z"/>
	<path id="Path_740" class="st1" d="M234.9,387.3c-1.4,2.3-2.3,4.8-2.7,7.5c0,7.5,5.1,11,6.7,11c1.5,0,2.9-2.3,3.4-4
		c0.4-1.2,0.5-2.5,0.1-3.7c-0.5-2.6-1.1-5.2-1.9-7.7c-0.1-0.4-0.5-1.4-0.8-2.5c-1.2-2.4-2.6-4.7-4.1-6.9
		C235.5,381,235,386.6,234.9,387.3z"/>
	<path id="Path_741" class="st1" d="M121.2,398.9c-1.1,0.5-1.1,9.4-1.1,10.4c0,0.3-0.1,0.5-0.3,0.5c-0.2,0-0.4,0.8-0.5,1.7
		c-0.1,0.8-0.2,1.6-0.5,2.3c-0.2,0.5-0.3,1.1-0.2,1.6l0.1,1l2.5-2.3c1.4-1.3,5.2-1.9,5.5-2.3c0.3-0.4-1.7-1.6-1.5-1.8
		c0.2-0.1,0.4-0.4,0.4-0.6c0-0.2,0.1-0.4,0.3-0.4s0.4-0.3,0.5-0.7s0.3-0.7,0.5-0.7c0.4,0,0.4-1.7,0-1.9
		C126.4,405.4,121.7,398.7,121.2,398.9z"/>
	<path id="Path_742" class="st1" d="M236.8,405.4c-0.7,0.1-0.7,0.2-0.6,1.6c0.1,0.8-4.7-0.9-4.5-0.7c0.3,0.2-0.3,1-0.1,1.3
		c0.3,0.4,8.8,5.3,9.3,5.8c0.5,0.5,0.9,0.9,1.2,0.8c0.2-0.1,0.4,0,0.2,0.3c-0.1,0.3,0.1,0.5,0.4,0.6c0.3,0.1,0.5,0.3,0.5,0.6
		c0,0.3,0.2,0.5,0.5,0.6c0.4,0.1,0.5-0.2,0.5-2c0.1-0.8,0-1.6-0.3-2.3c-0.3-0.5-0.5-1-0.5-1.5c-0.1-0.7-0.4-10.9-1.3-11.5
		C241.1,398.3,238.4,405.1,236.8,405.4z"/>
	<path id="Path_743" class="st0" d="M111.3,409.5c-2.3,1.9-4.4,3.9-6.3,6.1c0,0.2-0.1,0.4-0.3,0.4c-0.2,0-1.1,1.1-2.8,3.7
		c-0.6,0.9-3.2,5.7-3.8,7.1c-0.5,1-1.7,4.5-3.1,8.3c-0.7,1.8-1.2,3.7-1.4,5.6c-0.2,1.1-0.5,6.3-0.6,7c-0.3,2.9-0.7,4.4,0.5,4.8
		c1.4,0.4,2.3-0.9,2.6-2c0.1-0.5,0.3-1,0.5-1.5c0.2-0.3,0.9-2.2,1.6-4.1c0.7-1.9,1.8-4.9,2.5-6.5s1.3-3.3,1.4-3.7
		c0.1-0.5,0.3-0.9,0.6-1.3c0.3-0.4,0.4-0.8,0.5-1.2c0-0.3,0.1-0.6,0.3-0.8c0.3-0.3,0.5-0.7,0.5-1.1c0.4-1.3,0.9-2.6,1.5-3.8
		c0.3-0.5,0.4-1,0.5-1.5c0-0.2,0.1-0.5,0.3-0.6c0.3-0.3,0.5-0.7,0.5-1.1c0.4-1.3,0.9-2.6,1.5-3.8c0.2-0.5,0.4-1,0.5-1.5
		c0-0.3,0.1-0.5,0.3-0.7c0.4-0.7,0.7-1.3,1-2c0.4-1,0.9-2,1-2.4c1.4-2.9,1.6-3.5,1.6-3.6C112.7,408.8,111.8,409.1,111.3,409.5z"/>
	<path id="Path_744" class="st0" d="M250.2,409.2c0.1,0.2,0.2,0.5,0.3,0.7c0.2,0.3,0.5,1.1,0.9,1.8c0.3,0.7,0.8,1.9,1.1,2.5
		s0.8,1.9,1.1,2.7c0.2,0.6,0.5,1.2,0.8,1.7c0.2,0.2,0.3,0.4,0.3,0.6c0.1,0.5,0.2,0.9,0.5,1.3c0.3,0.5,0.5,1.1,0.7,1.7
		c0.1,0.4,0.2,0.8,0.5,1.1c0.2,0.2,0.3,0.4,0.3,0.6c0.1,0.5,0.2,0.9,0.5,1.3c0.5,1.1,2.3,5.6,2.6,6.7c0.1,0.4,0.3,0.7,0.5,1
		c0.2,0.3,0.3,0.6,0.4,0.9c0.1,0.3,0.7,1.9,1.3,3.5c0.6,1.6,1.7,4.5,2.5,6.5c0.5,1.4,1,2.7,1.6,4c0.2,0.3,0.3,0.7,0.3,1
		c0.2,1,0.7,2,1.4,2.8c0.5,0.3,1.8-0.4,2.7-1.2c0.6-0.6,0.7-0.9,0.5-2.1c-0.1-0.7-0.3-1.4-0.5-2c-0.2-0.5-0.3-1-0.3-1.6
		c-0.3-2.1-0.7-4.2-1.4-6.3c-0.2-0.6-0.4-1.7-0.6-2.4c-0.4-1.5-2.7-8.1-3.4-9.5c-1.8-3.9-4.1-7.6-6.8-11
		C255.3,412.3,250.2,408.1,250.2,409.2z"/>
	<path id="Path_745" class="st0" d="M110.8,412c-1.7,3.5-4.5,1.6-5.9,4.2c-0.9,1.6-1.2,7.4-1.8,8.8c-0.6,1.4-1.3,3.7-1.4,4
		c-1.3,2.9-2.4,6-3.4,9c-0.3,1.2-1.8,4.6-1.8,5.6l-0.8,7.8l5.2-5.1c0.8-0.9,3.4-4.4,4.2-5.6c2.9-4.7,5.2-9.7,7-14.9
		c0.3-1.1,0.8-2.6,1-3.4c0.2-0.7,0.4-1.3,0.5-2c0.1-1,0.3-1.9,0.5-2.9c0.3-1.4,0.4-2.8,0.4-4.2l-1.7-4.5L110.8,412z"/>
	<path id="Path_746" class="st0" d="M248.1,412.8c0.6,4.3,0.9,6.6,1.2,7.7c0.2,0.7,0.4,1.9,0.5,2.5c0.4,1.8,1,3.5,1.7,5.2
		c1,2.7,1.5,4,1.9,4.7c0.2,0.3,0.9,1.6,1.6,3c1.6,3.4,3.7,6.5,6.2,9.4c0.2,0,0.3,0.2,0.3,0.4s5.7,5.2,6,5.5c0.9,0.7,0.2-5-0.3-9
		c-0.2-1.3-3-2.5-3.2-3c3.8-4.4-5-17.7-8.9-20.8c-2.2-1.8-1.2-2.2-1.6-5.4c0-1.8-1.4-3.4-3.3-3.7
		C249.3,410.1,248.5,411.4,248.1,412.8z"/>
	<path id="Path_747" class="st0" d="M153.5,415.1c-1.3,2.4-1.2,7.5,0.2,15c0.2,1.1,0.4,2.3,0.5,3.4c0,1,0.1,1.1,0.9,1
		c1.3-0.3,2.6-0.8,3.8-1.4c2.6-1.3,2.9-1.5,3-2.3c-0.8-3.5-2-7-3.4-10.3c-0.2-0.3-0.5-1.1-0.9-1.9c-0.5-1.7-1.4-3.3-2.7-4.7
		C154.4,413.8,154.2,413.9,153.5,415.1z"/>
	<path id="Path_748" class="st0" d="M177.9,414.1c-0.2,0.2-0.3,0.4-0.4,0.6c-0.1,0.3-0.2,0.5-0.4,0.7c-0.2,0.2-0.6,0.6-0.7,0.8
		s-0.9,1.1-1.6,2.1c-0.7,1-1.9,2.5-2.6,3.4c-0.6,0.6-1,1.3-1.4,2c0,0.2-0.1,0.3-0.3,0.3c-0.4,0.3-0.8,0.7-1.1,1.1
		c-0.5,0.8-1.2,1.5-1.8,2.1c-1.9,1.9-2,2.2-1.6,3.5c0.2,0.7,0.5,1.2,0.6,1.2c0.2,0,0.3,0.1,0.3,0.3c0.4,0.9,0.9,1.7,1.6,2.4
		c0.1,0.1,1,1.1,2.1,2.4s2.4,2.6,3,3.2c0.4,0.3,0.7,0.7,1.1,1.1c0.1,0.3,0.3,0.5,0.6,0.7c0.9,0.8,1.7,1.7,2.3,2.7
		c0,0.1,0.2,0.3,0.5,0.3c1,0,1.3-4.3,1.3-17.1c0-10.2-0.1-12.4-0.5-13.2C178.3,413.8,178.2,413.8,177.9,414.1z"/>
	<path id="Path_749" class="st0" d="M183.9,417.2c-0.6,5.2-0.1,26.9,0.7,27.6c0.3,0.3,0.5,0.1,3.4-3.1c1.3-1.4,2.8-3,3.4-3.5
		c1.3-1.2,2.4-2.6,3.4-4c0.1-0.2,0.2-0.4,0.5-0.5c1-1.1,1.7-2.4,2.1-3.8c-0.2-0.6-0.5-1.2-1-1.7c-1.5-1.5-2.8-3.1-4.1-4.7
		c-0.3-0.4-0.6-0.8-1-1.1c-0.2-0.1-0.3-0.3-0.3-0.5s-0.1-0.4-0.2-0.4c-0.8-0.7-1.4-1.6-2-2.4c-0.6-0.9-1.3-1.8-2.1-2.7
		c-0.6-0.6-1.1-1.3-1.4-2c-0.1-0.3-0.4-0.5-0.6-0.5C184.5,413.7,184.2,414.9,183.9,417.2z"/>
	<path id="Path_750" class="st0" d="M207.8,414.1c-0.2,0.2-0.4,0.5-0.4,0.7c0,0.2-0.1,0.4-0.3,0.4s-0.4,0.4-0.5,0.8
		c-0.1,0.3-0.2,0.7-0.4,1c-0.4,0.6-0.7,1.2-1,1.9c-0.4,1-0.9,2-1.1,2.4c-0.3,0.6-2,5.5-3,8.4c-0.4,1.3-0.5,1.7-0.1,2
		c2.1,1.2,4.4,2.3,6.7,3.1c0.7,0,0.8-0.3,1.3-3.5c0.2-1.4,0.5-3,0.7-3.7c0.3-1.9,0.5-3.8,0.5-5.7c0.3-1.9,0.2-3.9-0.4-5.8
		C209.2,414.4,208.3,413.6,207.8,414.1z"/>
	<path id="Path_751" class="st0" d="M126.1,417.9c-1.7,0.8-3.5,1.4-5.3,1.6c-0.5-0.3-1.8,0.6-3,1.9c-1.7,2.1-3.2,4.3-4.6,6.6
		c-0.2,0.5-0.5,0.9-0.8,1.3c-0.2,0.2-1.5,2.4-4.2,7.4c-1.9,3.2-3.6,6.5-5.1,9.9c0,0.2-0.1,0.4-0.3,0.4s-0.4,0.4-0.5,0.9
		s-0.3,0.9-0.5,0.9c-0.2,0-0.4,0.4-0.5,0.8c-0.1,0.4-0.2,0.7-0.5,1c-0.3,0.3-0.4,0.6-0.5,1l-0.2,0.8l1.4-0.7
		c0.8-0.4,1.5-0.9,2.2-1.4c0.3-0.2,0.6-0.5,0.9-0.6c2.4-1.8,4.7-3.7,6.8-5.7c4.4-4.1,6.3-5.9,6.3-6.4c0-0.1,0.1-0.2,0.2-0.3
		c1.1-0.9,2-2,2.6-3.2c0-0.1,0.2-0.3,0.4-0.4c0.5-0.3,0.8-0.8,1-1.3c0.5-0.8,1-1.6,1.5-2.3c0.4-0.5,0.7-1,0.9-1.6
		c0-0.2,0.1-0.4,0.3-0.4c0.2,0,0.4-0.3,0.5-0.7c0.4-1.1,0.9-2.2,1.5-3.2c0.3-1.1,0.6-2.2,0.8-3.3c0.5-2.5,0.5-2.9,0.1-3.2
		C127,417.4,126.9,417.4,126.1,417.9z"/>
	<path id="Path_752" class="st0" d="M235.5,420.2c0,1,0.2,2,0.5,3c0.2,0.2,0.3,0.5,0.4,0.8c0.1,0.6,0.3,1.1,0.6,1.6
		c0.3,0.5,0.5,1,0.6,1.5c0,0.2,0.1,0.4,0.3,0.4c0.4,0.5,0.8,1,1,1.5c0.5,0.8,1,1.6,1.1,1.9c1.9,2.8,2.5,3.6,2.8,3.6
		c0.2,0,0.3,0.2,0.3,0.4c0,0.2,0.1,0.4,0.2,0.4s0.5,0.4,0.8,0.8c0.5,0.7,1.1,1.3,1.7,1.9c0.4,0.4,0.8,0.8,1.2,1.3
		c0,0.2,8.9,8.2,10.1,9.2c1.7,1.5,3.7,2.6,5.8,3.5c0.1-0.1-1.2-2.5-2.7-5.4c-1.6-2.9-2.9-5.5-2.9-5.7c0-0.2-0.1-0.4-0.3-0.4
		c-0.2,0-0.4-0.4-0.5-0.9c-0.1-0.5-0.3-0.9-0.5-0.9c-0.2,0-0.4-0.4-0.5-0.9c-0.1-0.5-0.3-0.9-0.5-0.9c-0.2,0-0.4-0.4-0.5-0.9
		c-0.1-0.5-0.3-0.9-0.5-0.9c-0.2,0-0.4-0.4-0.5-0.8c-0.1-0.3-0.2-0.7-0.4-1c-0.6-0.9-1.1-1.7-1.6-2.6c-1.3-2.6-2.9-5.1-4.7-7.5
		c-2.5-3.5-3-4-4.8-4.2c-1.6-0.2-3.2-0.6-4.6-1.3C235.4,417.1,235.3,417.2,235.5,420.2z"/>
	<path id="Path_753" class="st0" d="M157.8,435.8c-0.6,0.1-1.2,0.3-1.8,0.5c-1.9,1-3.7,4.1-5,8.8c-0.6,3-0.7,6.1-0.3,9.1l0.4,0.9
		l0.7-1.3c0.7-1.4,1.8-2.6,3-3.7c0.9-0.8,1.8-1.6,2.9-2.2c0.5-0.2,0.9-0.5,1.4-0.8c2.3-1.3,4.8-2.3,7.3-3.1c1.9-0.6,3.8-1.1,5.8-1.5
		c0.9,0,0.6-0.6-0.9-1.9c-1.7-1.4-3.6-2.6-5.7-3.4c-0.3,0-0.6-0.1-0.8-0.3c-1.4-0.6-2.9-1-4.4-1.1
		C159.4,435.7,158.6,435.7,157.8,435.8z"/>
	<path id="Path_754" class="st0" d="M203.5,435.8c-3.4,0.4-6.6,1.5-9.5,3.1c-1.4,1-2.7,2.1-3.7,3.4c0,0.1,0.4,0.3,0.9,0.4
		c1.8,0.3,3.6,0.8,5.3,1.3c0.4,0.2,0.8,0.3,1.2,0.4c0.3,0,0.6,0.1,0.9,0.3c0.3,0.1,1.4,0.6,2.4,1c5,2.1,9.3,5.7,10.4,8.7
		c0.4,1.1,0.8,0.4,1-1.7c0.6-6.1-1.5-13.4-4.6-15.8C206.6,435.9,205.1,435.5,203.5,435.8z"/>
</g>
</svg>
