<?xml version="1.0" encoding="utf-8"?>
<!-- Generator: Adobe Illustrator 24.2.3, SVG Export Plug-In . SVG Version: 6.00 Build 0)  -->
<svg version="1.1" id="Layer_1" xmlns="http://www.w3.org/2000/svg" xmlns:xlink="http://www.w3.org/1999/xlink" x="0px" y="0px"
	 viewBox="0 0 200 200" style="enable-background:new 0 0 200 200;" xml:space="preserve">
<style type="text/css">
	.st0{fill:#E0DFDE;}
	.st1{fill:#89C0CF;}
</style>
<g id="Group_160" transform="translate(-70.134 -718.212)">
	<path id="Path_668" class="st0" d="M181.2,749.6c0,0.2-0.6,0.8-3.3,6.1c-6.2,12.6-5.9,11.6-5.9,14.4c0,2.6,0.5,4.9,0.9,4.4
		c0.6-0.9,1.1-1.8,1.6-2.8c0.8-1.4,1.8-3.4,2.4-4.4c1.6-2.8,3-5.7,4.2-8.7c0-0.3,1.2-3.8,1.4-4.6c0.6-1.3,0.6-2.8-0.1-4.1
		C182.1,749,181.2,748.9,181.2,749.6z"/>
	<path id="Path_669" class="st0" d="M158.5,754.3c0,3.4,0.1,4.2,0.6,5.1c0.3,0.7,2.8,5.5,3.7,7.3c1.1,2.7,2.6,5.3,4.3,7.6
		c0.5,0,0.7-1.3,0.8-4.2l0-2.7l-3.8-7.7C158.5,748.8,158.5,748.7,158.5,754.3z"/>
	<path id="Path_670" class="st0" d="M172.5,754.2c-1.3,0.2-2.6,0.2-3.8,0.1l-2.6-0.2v1c0.9,3.8,2,7.5,3.5,11.1
		c0.2,0.3,0.3,0.7,0.3,1c0,0.7,0.9,0.2,1-0.6c0.4-1.3,0.8-2.6,1.4-3.9c0.2-0.5,0.4-1,0.4-1.6c0-0.3,0.1-0.6,0.3-0.9
		c0.4-0.9,0.7-1.9,0.9-2.9C174.7,754.2,174.6,753.8,172.5,754.2z"/>
	<path id="Path_671" class="st0" d="M150.3,757.6c-2.2,0.8-4.2,2-6,3.5c0,0.2-0.1,0.3-0.3,0.3c0,0,0,0,0,0c-0.3,0.1-0.6,0.3-0.9,0.5
		c-0.3,0.3-1.2,1.1-1.9,1.7c-0.6,0.5-1.2,1.1-1.6,1.8c-0.5,0.9,0.8,1.4,5,1.6c3.5,0.3,3.7,0.3,5-0.5c0.7-0.4,1.3-0.9,1.3-1.1
		c0-0.2,0.1-0.3,0.3-0.3c0,0,0,0,0,0c2.2-1.6,4.1-3.6,5.7-5.8c1.1-2.2,0.9-2.5-2.1-2.6C153.3,756.6,151.7,756.9,150.3,757.6z"/>
	<path id="Path_672" class="st0" d="M157.1,757.2c0,0.2-32,7.7-2.5,11.5c1.3,0.2,5,1.3,6.2,0.7c1-0.5,0.7-1.9-1.2-5.6
		C159,762.8,157.1,756.5,157.1,757.2z"/>
	<path id="Path_673" class="st0" d="M183.8,757.2c-1.6,3.7-3,7.4-4.1,11.3c0,0.6,1.4,1.1,2.8,1.1c1.3,0,6.3-0.7,7-0.8
		C216.5,766,184.2,756.7,183.8,757.2z"/>
	<path id="Path_674" class="st0" d="M123.3,768.9c-3.4,0.4-6.5,2.3-8.4,5.2c-1.1,3.8-1.5,7.8-0.9,11.7c0.6,6.4,0.9,7.3,1.7,5.3
		c0.6-1.4,1.2-2.8,2-4.2c1.2-1.9,3.8-5.9,4.1-6.2c0.2-0.2,0.9-1.1,1.6-2c0.7-0.9,1.7-2,2.2-2.6s1.3-1.3,1.6-1.7
		c1.6-1.7,3.3-3.2,5.1-4.6c0.7-0.5,1.3-1,1.3-1.2C130.1,768.3,126.7,768.4,123.3,768.9z"/>
	<path id="Path_675" class="st0" d="M207.5,768.7c-0.1,0.2,0.1,0.4,0.5,0.5c0.4,0.1,0.6,0.3,0.6,0.5c0,0.2,0.1,0.3,0.3,0.3
		c0,0,0,0,0,0c1.1,0.8,2.2,1.7,3.1,2.7c1.5,1.4,5.1,4.9,5.1,5c1.1,1.6,2.2,3.1,3.5,4.6c0.2,0.2,0.3,0.4,0.4,0.6
		c0.3,0.8,0.8,1.5,1.4,2.2c1.3,2.2,2.4,4.4,3.3,6.8c0.2,1.1,0.8-0.7,1.3-3.8c0.8-5.4,0.3-13.4-0.9-13.4c-1.2-1.3-2.3-2.7-3.3-4.1
		c-1.9-0.9-3.8-1.5-5.9-1.9C213.9,768.3,210.7,768.3,207.5,768.7z"/>
	<path id="Path_676" class="st0" d="M139,769.3c-0.1,0-6.2-1.5-7.3-0.4c-0.1,0.1-3.8,1.9-4.7,2.6c-6.1,4.9-12.4,14.8-12,20.2
		c1.7,0.5,3.5,0.8,5.3,1.1c2.8-0.5,5.5-1.7,7.8-3.3c0.1-0.2,0.4-0.4,0.6-0.4c1.9-1.6,3.7-3.4,5.2-5.3c0-0.2,0.2-0.4,0.5-0.5
		c0.3-0.1,0.5-0.4,0.5-0.7c0-0.2,0.1-0.5,0.3-0.5c0.2,0,0.4-0.3,0.5-0.8c0.1-0.4,0.3-0.8,0.4-0.8c0.7,0,3.3-6.6,3.7-9.2
		C139.9,769.6,139.8,769.6,139,769.3z"/>
	<path id="Path_677" class="st0" d="M201.1,770.4c0,2,3.6,10.9,4.4,10.9c0.2,0,0.3,0.2,0.3,0.3c0,1,5.3,6.6,7.7,8.1
		c1.4,1,3.1,1.8,4.8,2.3c2.7,0.9,7,0.8,7.6-0.2c1.3-2.1-12.2-20.9-17.9-23.1c-0.2-0.1-5.8,0.9-6.6,0.9
		C201.2,769.6,201.1,770,201.1,770.4z"/>
	<path id="Path_678" class="st0" d="M150.7,770.7c-0.9,0.2-1.8,0.5-2.7,0.9c-0.6,0.3-1.8,0.6-1.8,0.8c-3.5,2.8-6.8,5.8-9.7,9.1
		c-1.8,2.4-3.4,4.8-4.8,7.4c-0.3,0.6-0.6,1.2-0.9,1.7c-0.4,0.7-0.7,1.6-0.7,2.4c0.1,0.2,0.3,0.4,0.6,0.4c0.3,0,0.4,0.1,0.4,0.3
		c0,0.2,0.3,0.4,0.7,0.5c0.7,0.3,1.3,0.7,2,1.1c0.8,0.5,1.7,1,2.6,1.4c0.5,0.2,1,0.5,1.4,0.8c2.9,1.6,5.9,3.1,9,4.4
		c0.2,0,1.5,0.8,2.5,1.2c1,0.4,2.3,0.9,2.9,1.2s2.3,0.6,2.5,0.8c2.2,0.7,4.5,0.9,6.8,0.8c2.1-0.3,4-1.2,5.4-2.6l1.4-1.2v-25.3
		l-0.9-0.8c-1.7-1.6-3.7-3-5.8-4C158,770.4,154.3,770,150.7,770.7z"/>
	<path id="Path_679" class="st0" d="M183.6,770.6c-0.5,0.2-0.9,0.3-1.4,0.3c-1,0.2-1.9,0.6-2.8,1.1c-2.2,1-4.2,2.3-5.9,3.9l-1.1,1
		l-0.3,4.1c-0.3,7.1-0.2,14.1,0.4,21.2c0.2,0.1,0.3,0.2,0.3,0.4c0.3,0.7,0.9,1.2,1.6,1.5c0.2,0,0.3,0.1,0.3,0.3
		c1.1,0.8,2.4,1.4,3.8,1.6c0.4,0,0.8,0.1,1.2,0.3c1.4,0.2,2.9,0,4.2-0.6c0.8-0.3,1.6-0.5,2.5-0.6c0.8-0.1,1.6-0.3,2.3-0.7
		c0.2-0.2,0.5-0.3,0.7-0.3c4.6-1.9,9-4,13.3-6.3c1.5-0.9,5.5-3.2,5.6-3.2c0.5-0.2,0.9-0.5,1.3-0.9l1-0.9l-1.2-2.2
		c-1.4-2.9-3.1-5.6-5.1-8.2c-0.2-0.2-0.3-0.4-0.4-0.6c-1.1-1.5-2.3-2.9-3.6-4.3c-2.8-3.2-6.4-5.5-10.4-6.7
		C187.8,770.4,185.7,770.3,183.6,770.6z"/>
	<path id="Path_680" class="st0" d="M119.5,794.9c-0.7,0.2-2.1,0.4-3.2,0.6c-4.7,0.5-8.9,3.2-11.4,7.2c-1.6,2.5-2.4,5.4-2.3,8.4
		c0,2.6,0.5,5.2,1.4,7.6c0.3,1,0.5,2,0.6,3c0.5,4.4,1.6,7.7,2.9,8.8c2,1.7,3.8,1.1,7.5-2.7c3.2-3.2,8.4-10.1,8.4-11.1
		c0-0.2,0.1-0.4,0.3-0.5c0.5-0.7,1-1.4,1.3-2.1c1.6-3.9,2.4-8.1,2.2-12.3c0-4.3-0.4-6.3-1.6-6.9
		C123.6,794.5,121.6,794.5,119.5,794.9z"/>
	<path id="Path_681" class="st0" d="M214.9,795.2c-0.4,0.6-0.7,1.2-0.9,1.9c-0.5,1.4-2.6,8.2-3,9.8c-0.1,2.5,0,5.1,0.2,7.6
		c0.4,2.4,0.9,4.7,1.7,6.9c1.5,2.6,3.2,5.1,5.2,7.4c1.6,1.7,3.5,3,5.5,4c1.9,0.5,3.8,0.6,5.7,0.5c2.2-0.5,4.1-2,5.1-4.1
		c0.9-2,1.5-4.2,1.7-6.3c0.2-1.9,0.6-3.8,1.3-5.6c0.3-1.1,0.6-2.3,0.7-3.5c0.9-4.9-0.5-10-3.9-13.6c-1.5-1.6-3.3-2.9-5.4-3.7
		c-0.5-0.1-1-0.3-1.4-0.4c-2.9-0.8-5.9-1.3-9-1.5C215.6,794.5,215.4,794.6,214.9,795.2z"/>
	<path id="Path_682" class="st1" d="M131.9,805.6c0.1,7.4,0.2,8.6,0.7,10.3c0.7,2.2,1.6,4.2,2.9,6.1c0.1,0,0.2,0.2,0.2,0.4
		c0.2,0.7,0.8,1.3,1.5,1.5c0.9-3.1,1.3-6.4,1.2-9.6c0.2-4.8,0.1-5.4-2.9-11.2c-2.2-4.3-3-5.6-3.4-5.8
		C131.8,800,131.7,802.8,131.9,805.6z"/>
	<path id="Path_683" class="st1" d="M207.7,797.8c-1.3,1.6-2.3,3.4-3,5.3c-2.9,5.8-2.7,5.1-2.7,11.6c0,3.2,0.1,6.3,0.3,6.9
		c0.2,1.3,0.6,2.2,1,2.2c1.6-1.8,2.8-3.9,3.5-6.2c0-0.3,0.1-0.4,0.3-0.4c0.2,0,0.4-0.5,0.5-1.2c0.1-0.7,0.3-1.5,0.5-2.2
		c0.3-0.9,0.6-16.8,0.3-16.8C208.1,797.3,207.9,797.6,207.7,797.8z"/>
	<path id="Path_684" class="st1" d="M139.6,802.9c0,0.7,1.9,3,2.5,3c0.2,0,0.3,0.1,0.4,0.2c0.7,0.7,1.5,1.3,2.4,1.7
		c0.2,0,0.3,0.1,0.4,0.2c1,0.8,2.1,1.3,3.2,1.6c0.7,0,2.4-2.5,2.4-3.5c0-1.1-0.8-1.6-4.8-3c-1.6-0.6-3.2-1-4.9-1.1
		C139.7,802.1,139.6,802.2,139.6,802.9z"/>
	<path id="Path_685" class="st1" d="M195.7,802.7c-0.8,0.3-1.9,0.7-2.4,0.9c-0.6,0.2-1.3,0.4-1.9,0.6c-0.7,0.2-1.3,0.5-1.7,1
		c-0.6,0.7-0.7,0.9-0.3,1.4c0.2,0.3,0.3,0.7,0.4,1c0.3,1,1.1,1.8,2,2.1c0.7-0.2,1.3-0.4,1.9-0.8c0.7-0.4,1.5-0.9,1.7-1
		c1.7-1.1,3.3-2.3,4.8-3.7c0.3-0.4,0.5-0.9,0.6-1.4c0-0.6-0.1-0.7-1.8-0.7C197.9,802.2,196.8,802.3,195.7,802.7z"/>
	<path id="Path_686" class="st1" d="M162.4,807c-1.6,0.4-3.2,0.9-4.7,1.5c-4.5,2.5-6.6,5.2-6.9,9.2c-0.1,1.4-0.3,3-0.3,3.5
		c-0.2,1.4,0.3,2.1,0.9,1.3c0.8-1.2,2-2.2,3.3-2.8c3.5-1.2,7.1-2,10.8-2.3c0.7,0,1.3-0.3,1.9-0.6c0.8-1.9,1.1-3.9,1.1-5.9
		c0.3-3.1-0.2-3.7-3.2-3.8C164.3,806.9,163.4,806.9,162.4,807z"/>
	<path id="Path_687" class="st1" d="M173.5,807.1c-1.4,0.4-1.7,1-1.7,3.3c0,2.2,0.4,4.4,1.1,6.5c0.6,0.2,1.2,0.3,1.8,0.4
		c3.8,0.4,7.5,1.2,11.1,2.5c1.3,0.6,3,2.2,3,2.8c0,0.2,0.2,0.3,0.5,0.3c0.4,0,0.5-0.4,0.3-3.4c-0.3-4.9-1-5.3-1.9-6.7
		c-1.2-1.4-2.6-2.5-4.2-3.2C181.7,809.3,175.5,806.5,173.5,807.1z"/>
	<path id="Path_688" class="st1" d="M139.8,808.9c-0.5,0.5-0.2,2,0.7,3.4c1.8,2.7,5.2,5.6,6.6,5.6c1.3,0,1.9-1.8,1.3-4.4
		c-0.4-2.1-0.8-2.5-2.8-3.3c-0.7-0.3-1.3-0.6-2-0.9C142.4,808.9,141.1,808.7,139.8,808.9z"/>
	<path id="Path_689" class="st1" d="M196.7,809.4c-1.6,0.5-3,1.2-4.4,2.1c-0.4,0.9-0.6,1.8-0.6,2.8c-0.2,2-0.1,2.5,0.4,3
		c0.8,0.9,1.4,0.8,3.1-0.3c1.6-1.1,3-2.5,4-4.1c0-0.1,0.1-0.3,0.2-0.3c0,0,0,0,0,0c0.7-0.8,1.2-1.6,1.5-2.6c0.2-0.4-0.9-1.2-1.7-1.2
		C198.4,808.9,197.5,809.1,196.7,809.4z"/>
	<path id="Path_690" class="st0" d="M115.5,808.4c-2.7,7.3-5,14.7-6.8,22.2c0.8,2.4,10.4,2.6,14.9-1.9c1.9-1.9,3.4-4.1,4.6-6.4
		c0-0.2,1.7-4.6,1.8-5.5c0.2-1.5-2.7-20.2-3.4-20.2C126.1,796.7,115.8,808.1,115.5,808.4z"/>
	<path id="Path_691" class="st1" d="M140.4,816.2c-0.4,0.4-0.2,1.9,0.5,3.2c0.6,1.2,1.3,2.4,2.1,3.5c0.1,0.1,0.9,1.1,1.9,2.3
		c2.2,2.8,2.7,2.7,2.8-0.4c0.3-2-0.1-4.1-1.2-5.8c-1.6-1.1-3.4-2.1-5.3-2.8C140.9,816.1,140.7,816.1,140.4,816.2z"/>
	<path id="Path_692" class="st1" d="M196.8,817.3c-3.8,1.9-4,2.2-4.2,6.5c-0.1,4.1,0.1,4.4,1.8,2.6c0.5-0.5,1.1-1.2,1.4-1.5
		c1.8-2.2,3.2-4.6,4.3-7.3C200.3,815.9,199.7,815.8,196.8,817.3z"/>
	<path id="Path_693" class="st1" d="M162.6,820.1c-2.1,0.3-4.2,1.1-6,2.3c-1.9,1.3-3.5,3-4.8,4.9c0,0.2-0.1,0.4-0.3,0.5
		c-0.7,0.2-0.7,2.4-0.1,4.9c0.2,0.9,0.5,1.8,0.9,2.7c0.4,0,0.8-0.1,1.1-0.3c0.7-0.4,2-0.6,7.4-0.7l6.7-0.2l0.2-0.8
		c0.9-3.2,1.6-12,1-12.8C166.7,819.9,164.6,819.8,162.6,820.1z"/>
	<path id="Path_694" class="st1" d="M173.1,820c-1.9,0.2-2.2,1.2-1.7,5.5c0.2,1.8,0.4,3.9,0.5,4.8c0.1,0.9,0.3,1.8,0.5,2.7l0.3,1.2
		h6.3c5.6,0,6.4,0.1,7.5,0.6c0.4,0.2,0.9,0.5,1.4,0.6c0.3,0,0.6-1.2,1-3.9c0.3-2.4,0.3-2.9-0.1-3.8c-1.9-3.2-4.8-5.7-8.3-7.1
		C178.2,820.1,175.6,819.8,173.1,820z"/>
	<path id="Path_695" class="st1" d="M140.1,823.3c0.1,2,0.4,4,1,5.9c0.2,0.5,0.3,1,0.3,1.5c1.3,2.4,3.3,4.3,5.8,5.5
		c0.7,0,0.8-0.7,0.8-3.6v-2.6l-1.9-1c-1.8-1-3.3-2.3-4.4-4c-0.2-0.2-0.3-0.4-0.3-0.7C141.5,823.8,140.3,822.9,140.1,823.3z"/>
	<path id="Path_696" class="st1" d="M198.6,824.7c-1.1,1.7-2.6,3.1-4.3,4.1c-0.4,0.1-0.7,0.3-0.7,0.5c0,0.2-0.2,0.3-0.4,0.3
		c-0.7,0-0.8,0.7-0.8,3.4c0,3.2,0.3,3.6,1.6,2.8c1.8-1,3.3-2.4,4.5-4c0.3-0.7,0.6-1.4,0.7-2.1c0.1-0.6,0.4-1.9,0.7-2.8
		c0.3-0.9,0.4-1.9,0.3-2.8l-0.1-1.2L198.6,824.7z"/>
	<path id="Path_697" class="st0" d="M103.8,834.6c-1.8,0.8-3.4,1.9-4.9,3.2c0,0.2-0.2,0.3-0.3,0.3c-2.2,1.7-4.1,3.7-5.7,6
		c-0.9,1.4-1.7,2.8-2.4,4.2c-0.6,1.2-1.2,2.5-1.4,2.8c-0.2,0.6-0.4,1.2-0.6,1.9c-0.2,0.7-0.5,2.2-0.8,3.4c-0.3,1.1-0.7,3.1-0.9,4.4
		c-0.3,1.4-0.6,2.8-1,4.1c-1.6,4.7-2.7,8.2-4.3,13.2c-0.3,0.9-0.4,1.8-0.5,2.7l0,1l0.8-0.9c1.1-1.7,2-3.4,2.9-5.2
		c0.8-1.6,1.6-3.2,2.5-4.7c0.3-0.3,0.5-0.6,0.6-1c0.1-0.3,0.3-0.6,0.5-0.6c0.2,0,0.3-0.2,0.3-0.3c0.1-0.3,0.2-0.6,0.4-0.8
		c0.2-0.2,0.7-0.8,1.1-1.3c0.4-0.5,1.1-1.3,1.5-1.8c0.3-0.3,0.6-0.6,0.8-1c0.2-0.3,0.4-0.6,0.7-0.9c2.5-2.7,4.8-5.6,6.8-8.7
		c0-0.2,0.1-0.3,0.3-0.3c0.1,0,0.6-0.8,1-1.7c0.5-1.4,1.2-2.7,1.9-4c0.7-1.1,1.2-2.3,1.7-3.5c1.7-4.2,2.3-11.4,1-11.3
		C105,833.9,104.4,834.2,103.8,834.6z"/>
	<path id="Path_698" class="st0" d="M234.2,834.7c-0.4,3.7,0.2,7.4,1.6,10.8c0.3,0.5,0.5,1.1,0.6,1.6c0,0.2,0.1,0.4,0.3,0.4
		c0.7,1,1.3,2.2,1.6,3.4c0,0.2,0.1,0.3,0.3,0.3c0.2,0,0.3,0.2,0.3,0.5c0.5,1.4,1.2,2.7,2.2,3.8c0.3,0.2,0.5,0.5,0.6,0.9
		c0.8,1.4,1.9,2.8,3.1,3.9c0.3,0.2,0.5,0.5,0.7,0.9c0.1,0.3,0.3,0.5,0.6,0.7c0.3,0.3,1.1,1.3,1.8,2.1c0.7,0.8,1.7,2,2.1,2.5
		c2,2.5,3.7,5.3,5.1,8.2c1,2.1,2.1,4.2,3.4,6.1c0.5,0.7,0.6,0.7,0.8,0.2c0.1-0.5,0.1-1.1-0.1-1.5c-0.2-0.7-0.4-1.4-0.6-2.2
		c0-0.5-0.2-1-0.5-1.4c-0.2-0.3-0.3-0.6-0.3-1c0-0.6-0.2-1.2-0.4-1.8c-0.2-0.6-0.7-2.1-1.1-3.4c-0.3-0.9-0.6-1.8-1-2.7
		c-0.2-0.3-0.3-0.6-0.3-0.9c-0.1-0.5-0.2-1.1-0.4-1.6c-0.4-1.2-0.7-2.3-0.9-3.5c-0.7-4.6-2-9.1-3.9-13.4c-1.8-3.7-4.4-7-7.6-9.6
		c-1.4-1.2-3-2.2-4.6-3c-0.2,0-0.4-0.1-0.4-0.2c-0.8-0.6-1.7-1.1-2.6-1.3C234.3,833.7,234.2,834.1,234.2,834.7z"/>
	<path id="Path_699" class="st0" d="M115.1,836.6c-0.9,0.9-2.4,2.6-3.3,3.9c-0.9,1.2-1.8,2.3-2,2.5c-1.3,1.6-2.4,3.3-3.4,5.1
		c0,0.3-0.1,0.4-0.3,0.4s-0.4,0.3-0.5,0.7c-0.1,0.5-0.3,1-0.5,1.4c-0.5,0.9,0.2,1.7,1.4,1.7c2.3-0.6,4.5-1.6,6.5-3
		c0.5-0.3,1-0.6,1.5-0.8c0.8-0.5,1.5-1,2.1-1.7l1.8-1.7v-2.7c0-3.4-0.6-7.1-1.2-7.3C117,835,116.1,835.6,115.1,836.6z"/>
	<path id="Path_700" class="st0" d="M223.4,835.5c-0.5,1.7-0.7,3.5-0.5,5.2l-0.1,4.7l1.1,1.1c0.4,0.4,0.9,0.8,1.4,1.1
		c0.2,0,0.3,0.1,0.4,0.2c0.9,0.9,2,1.6,3.2,2.1c0.5,0.2,1,0.5,1.4,0.9c0.1,0.2,0.3,0.3,0.5,0.3c0.6,0.1,1.1,0.4,1.6,0.7
		c1.4,0.7,3,0.7,3.5-0.1c0.3-0.4,0.2-0.9-0.3-1.7c-1.1-2.2-2.5-4.2-4-6.1c-0.2,0-0.3-0.2-0.3-0.3c-1.9-3-4.3-5.8-7-8.2
		C224.1,835,223.7,835.1,223.4,835.5C223.5,835.4,223.5,835.4,223.4,835.5z"/>
	<path id="Path_701" class="st1" d="M158,835.8c-2.1,0.2-4,1.3-5.4,2.8c-0.6,0.9-0.7,1.4-0.7,4.3c0,4.6,0,4.6,5,4.6
		c2.7-0.2,5.3,0.2,7.8,1.4c0.8,0.4,1.7,0.6,2.6,0.5c0.6-4.1,0.5-8.3-0.1-12.4C165.9,835.3,162.1,834.8,158,835.8z"/>
	<path id="Path_702" class="st1" d="M176,835.5c-1,0.2-1.9,0.7-2.7,1.3c-0.5,0.4-0.6,1.1-0.6,6.6c0,4.6,0.1,6.1,0.4,6.1
		c0.8,0.1,1.4-0.1,3.7-1c2-0.8,4.2-1.2,6.3-0.9c1.5,0.1,2.9,0,4.4-0.3c0.7-0.4,1-2,1-4.5c0.2-1.7-0.2-3.4-1.3-4.8
		c-1.1-0.9-2.4-1.5-3.8-1.9c-0.6-0.2-1.7-0.4-2.4-0.6C179.4,835.2,177.7,835.2,176,835.5z"/>
	<path id="Path_703" class="st1" d="M141.9,836.7c-0.9,1.1-1.4,2.5-1.4,3.9c0.3,3.7,1,7.3,2,10.8c0.5,2.3,0.7,4.6,0.8,6.9
		c0.1,2.7,0.4,6,0.6,7.2c0.2,1.1,0.3,2.2,0.3,3.4c0,1.1,0.2,1.4,1.6,2.6c1.9,1.7,5.1,3.4,5.6,3.1c0.7-0.4,0.8-3.8,0.2-7.9
		c-0.3-2.2-0.7-5.1-0.8-6.6c-0.2-1.5-0.4-3.8-0.6-5c-0.2-1.3-0.5-4.2-0.8-6.5c-0.1-1.8-0.4-3.5-1-5.2c-0.8-1.6-1.8-3.1-3-4.4
		c-0.2,0-0.3-0.2-0.3-0.3c-0.5-1.1-1.4-1.9-2.4-2.5C142.5,836.3,142.2,836.5,141.9,836.7z"/>
	<path id="Path_704" class="st1" d="M196.8,836.4c-1.3,1.2-2.4,2.6-3.3,4.1c0,0.2-0.1,0.3-0.3,0.3c-0.6,0.6-1,1.3-1.3,2.1
		c-0.8,1.6-1.3,3.3-1.3,5.1c-0.1,1.7-0.4,4.3-0.6,5.9c-0.2,1.6-0.6,4.8-0.8,7.1s-0.7,5.2-0.9,6.5c-0.5,2.2-0.5,4.5,0,6.7
		c0.4,0.7,0.4,0.7,1.6,0.2c2.7-1.3,6-3.9,6.1-4.9c0.4-7.5,1.2-17.2,1.5-17.8c0.9-2.9,1.5-5.9,2-8.9c0.5-2.1,0.1-4.2-1-6
		C197.8,836.2,197.4,836,196.8,836.4z"/>
	<path id="Path_705" class="st1" d="M153.5,849.2c-0.4,0.2-0.7,0.6-0.9,1.1c-0.1,4,0.4,7.9,1.4,11.7c0.2,0.9,0.6,2.8,0.8,4.1
		c0.5,3.3,1.3,6.6,2.2,9.8c0.2,0.7,0.4,1.4,0.4,2c0.1,0.5,0.2,1,0.5,1.5c0.2,0.4,0.4,0.8,0.5,1.2c0.7,2,1.7,3.8,2.9,5.5
		c0.9,1.1,2.5,1.4,3.7,0.5c1.7-1,1.7-1.5,1.5-12.2c-0.4-15.5-0.6-20.2-1-20.3c-0.2-0.1-0.4-0.3-0.4-0.4c-0.3-0.7-0.9-1.2-1.5-1.5
		c-0.2,0-0.3-0.2-0.5-0.5s-0.3-0.5-0.5-0.5c-0.5-0.2-1-0.4-1.4-0.8C159,849,156.2,848.5,153.5,849.2z"/>
	<path id="Path_706" class="st1" d="M180.7,849.2c-0.8,0.3-1.6,0.7-2.3,1.2c-0.5,0.4-1,0.7-1.6,0.9c-0.6,0.4-1.2,0.9-1.7,1.4
		l-1.4,1.4l-0.3,4.4c-0.2,2.4-0.5,9.3-0.6,15.4l-0.2,11.1l1,1.2c0.8,0.9,1.2,1.2,2.2,1.2c1.1,0,2.6-0.9,2.6-1.5
		c0-0.2,0.1-0.4,0.3-0.4c1.3-2.1,2.2-4.3,3-6.6c0.8-2.7,1.4-5,2-7.7c0.3-1.4,0.7-3,0.8-3.6c0.2-0.6,0.4-2,0.6-3.2
		c0.2-1.1,0.5-3.1,0.8-4.4c0.7-2.6,1-5.3,1.1-7.9c0-2.1,0-2.1-0.9-2.6C184.2,848.7,182.4,848.7,180.7,849.2z"/>
	<path id="Path_707" class="st0" d="M113.8,851.2c-0.7,1-1.3,2-1.5,2.3c-0.8,1-1.6,1.8-2.5,2.7c-2,2-4.2,2.1-4.8,3.4
		c-0.1,0.3-17.5,21.6-17.8,21.9c-0.7,0.7,2.7-0.6,3.5-1.3c0.4-0.4,0.9-0.7,1.3-1c0.4-0.3,0.8-0.6,1.1-0.9c0.2-0.2,0.4-0.3,0.6-0.4
		c0.8-0.4,1.6-1,2.4-1.6c0.1-0.1,0.9-0.7,1.7-1.4c2.7-2.3,5.2-4.9,7.6-7.6c1-1.2,2.1-2.4,2.4-2.7c2.5-2.7,4.5-5.9,5.8-9.3
		c0.2-0.5,0.6-1.4,0.9-2c0.5-1.2,0.7-2.5,0.7-3.8C114.6,850,114.2,850.6,113.8,851.2z"/>
	<path id="Path_708" class="st0" d="M222.7,844.6c0,0.5,4,9.1,4.6,10.1c0.6,1.2,1.1,2.4,1.6,3.7c0.3,0.7,0.7,1.3,1.1,1.9
		c1.5,2.2,3.2,4.3,5.1,6.2c0.9,0.9,1.9,2.1,2.2,2.5c2.6,3.1,5.6,5.7,8.9,7.9c0.2,0,0.3,0.1,0.4,0.2c0.4,0.4,0.9,0.8,1.4,1.1
		c0.7,0.5,1.7,1.2,2.2,1.7c1.1,0.7,2.3,1.2,3.6,1.4C253.8,880.9,222.7,843.8,222.7,844.6z"/>
	<path id="Path_709" class="st0" d="M108,849c-0.8,0.3-1.6-0.3-2.1,0c-1.3,0.7-7.1,10.2-9,12.4c-1.1,1.1-2,2.4-2.7,3.7
		c0,0.2-0.1,0.4-0.3,0.4c-1.4,2-2.6,4.1-3.5,6.4c-0.6,1.4-1.2,2.8-1.3,3.1c-0.7,1.8-1.3,3.6-1.7,5.5l-0.2,1.3l0.7-0.7
		c0.3-0.2,0.5-0.5,0.7-0.9c0.2-0.3,0.4-0.6,0.7-0.9c0.4-0.4,1.2-1.3,1.9-2.1c1-1.3,1.4-1.7,3.2-3.8c1.3-1.4,4.8-5.5,5.6-6.4
		c0.4-0.5,1-1.1,1.2-1.3c1-1.1,1.9-2.3,2.6-3.6c0-0.2,0.1-0.3,0.3-0.4c-0.5,7.7,14.5-7.5,14.6-16.7C118.6,844.1,113.4,846.9,108,849
		z"/>
	<path id="Path_710" class="st0" d="M223,844.6c0,0,16.8,20.9,19.3,23.6c1.8,2,2.3,2.6,4.4,5c1.2,1.4,2.2,2.6,2.3,2.7
		c0.1,0.1,0.8,0.9,1.4,1.7l1.8,2.2c0.3,0.3,0.8,0.9,1,1.3c0.3,0.3,0.5,0.5,0.7,0.4c-0.5-2.6-1.3-5.1-2.4-7.4
		c-0.2-0.1-0.3-0.4-0.3-0.6c0-0.6-3.8-7.2-3.8-7.3c-0.6-1-1.2-2-1.9-2.9c0-0.5-10.5-13.5-11.2-15.8c-0.7-2.5-5.2-3.5-6.3-3.4
		L223,844.6z"/>
</g>
</svg>
