<?xml version="1.0" encoding="utf-8"?>
<!-- Generator: Adobe Illustrator 24.2.3, SVG Export Plug-In . SVG Version: 6.00 Build 0)  -->
<svg version="1.1" id="Layer_1" xmlns="http://www.w3.org/2000/svg" xmlns:xlink="http://www.w3.org/1999/xlink" x="0px" y="0px"
	 viewBox="0 0 51 22" style="enable-background:new 0 0 51 22;" xml:space="preserve">
<style type="text/css">
	.st0{fill:#FFFFFF;}
	.st1{fill:none;stroke:#707071;}
	.st2{fill:#89C0CF;}
</style>
<g id="Group_22" transform="translate(-322 -243)">
	<g id="Rectangle_19" transform="translate(322 243)">
		<path class="st0" d="M11,0.5h29c5.8,0,10.5,4.7,10.5,10.5l0,0c0,5.8-4.7,10.5-10.5,10.5H11C5.2,21.5,0.5,16.8,0.5,11l0,0
			C0.5,5.2,5.2,0.5,11,0.5z"/>
		<path class="st1" d="M11,0.9h29c5.6,0,10.1,4.5,10.1,10.1l0,0c0,5.6-4.5,10.1-10.1,10.1H11C5.4,21.1,0.9,16.6,0.9,11l0,0
			C0.9,5.4,5.4,0.9,11,0.9z"/>
	</g>
	<circle id="Ellipse_6" class="st2" cx="333" cy="254" r="10.5"/>
</g>
</svg>
