<?xml version="1.0" encoding="utf-8"?>
<!-- Generator: Adobe Illustrator 24.2.3, SVG Export Plug-In . SVG Version: 6.00 Build 0)  -->
<svg version="1.1" id="Layer_1" xmlns="http://www.w3.org/2000/svg" xmlns:xlink="http://www.w3.org/1999/xlink" x="0px" y="0px"
	 viewBox="0 0 231 235.8" style="enable-background:new 0 0 231 235.8;" xml:space="preserve">
<g>
	<ellipse cx="115.5" cy="58.5" rx="22.5" ry="22.5"/>
	<path d="M176,233.5c6.9,0,12.5-5.6,12.5-12.5c0-16.1-4.1-29.5-10.6-39.9c-9.8-15.7-24-24.2-35.3-28.8c0,0,0,0,0,0v-51.9
		c1.1-0.2,2.3-0.6,3.6-1c6.2-2.1,14-7.2,19.8-17.4c5.8-10.1,9.6-24.8,9.6-46.4c0-2.1,0-4.3-0.1-6.6H205v18.5c0,3.6,2.9,6.5,6.5,6.5
		s6.5-2.9,6.5-6.5c0,3.6,2.9,6.5,6.5,6.5s6.5-2.9,6.5-6.5v-41c0-3.6-2.9-6.5-6.5-6.5S218,2.9,218,6.5c0-3.6-2.9-6.5-6.5-6.5
		S205,2.9,205,6.5V21h-30.1c-0.5-4.2-4.2-7.3-8.5-7c-3.9,0.3-6.9,3.3-7.4,7H71.9c-0.5-3.7-3.5-6.7-7.4-7c-4.3-0.3-7.9,2.8-8.5,7H26
		V6.5C26,2.9,23.1,0,19.5,0S13,2.9,13,6.5C13,2.9,10.1,0,6.5,0S0,2.9,0,6.5v41C0,51.1,2.9,54,6.5,54s6.5-2.9,6.5-6.5
		c0,3.6,2.9,6.5,6.5,6.5s6.5-2.9,6.5-6.5V29h29.6c-0.1,2.3-0.1,4.5-0.1,6.6c0,14.4,1.7,25.7,4.6,34.7c4.2,13.4,11.3,21.6,18.2,25.9
		c3.7,2.3,7.3,3.6,10.2,4.2v51.9c-3.8,1.6-7.9,3.5-12,6c-8.3,5-16.8,12.3-23.3,22.8c-6.5,10.4-10.6,23.8-10.6,39.9
		c0,6.9,5.6,12.5,12.5,12.5s12.5-5.6,12.5-12.5c0-11.9,2.9-20.3,6.8-26.7c5.9-9.6,15.2-15.5,23.5-18.9c4.1-1.7,7.9-2.7,10.5-3.3
		c1.3-0.3,2.4-0.5,3-0.6c0.3-0.1,0.6-0.1,0.7-0.1c0,0,0,0,0.1,0v0c0,0,0,0,0.1,0c0,0,0,0,0,0c1.2-0.1,2.2-0.4,3.3-0.8
		c1,0.4,2.2,0.7,3.3,0.8l0,0c0.2,0,0.9,0.1,1.9,0.3c4.6,0.8,16.1,3.8,25.4,11.1c4.7,3.6,8.9,8.2,12,14.2c3.1,6,5.2,13.6,5.3,23.9
		C163.5,227.9,169.1,233.5,176,233.5z M79,74c-3.9-6.8-7.5-18.7-7.5-38.5c0-2.1,0-4.3,0.1-6.6h87.7c0.1,2.3,0.1,4.5,0.1,6.6
		c0,13.2-1.6,22.9-3.8,29.9c-3.4,10.5-7.9,14.9-11.5,17.2c-3.6,2.3-6.7,2.4-7.3,2.4c0,0,0,0-0.1,0c-0.6,0-1.2,0-1.7,0.1
		c-0.1,0-0.2,0-0.3,0H96.2c-0.1,0-0.2,0-0.3,0C95.3,85,94.7,85,94.2,85c0,0,0,0-0.1,0c-0.4,0-1.9-0.1-3.9-0.8
		C87.1,83.1,83,80.9,79,74z"/>
</g>
</svg>
