<?xml version="1.0" encoding="utf-8"?>
<!-- Generator: Adobe Illustrator 24.2.3, SVG Export Plug-In . SVG Version: 6.00 Build 0)  -->
<svg version="1.1" id="Layer_1" xmlns="http://www.w3.org/2000/svg" xmlns:xlink="http://www.w3.org/1999/xlink" x="0px" y="0px"
	 viewBox="0 0 50 50" style="enable-background:new 0 0 50 50;" xml:space="preserve">
<style type="text/css">
	.st0{fill:#FFFFFF;}
	.st1{fill:none;stroke:#707071;}
	.st2{fill:#89C0CF;}
</style>
<g id="Group_114" transform="translate(0 0.064)">
	<g id="Rectangle_13">
		<path class="st0" d="M16.6,12.5h14c3.9,0,7,3.1,7,7v12c0,3.9-3.1,7-7,7h-14c-3.9,0-7-3.1-7-7v-12C9.6,15.6,12.7,12.5,16.6,12.5z"
			/>
		<path class="st1" d="M16.6,13h14c3.6,0,6.5,2.9,6.5,6.5v12c0,3.6-2.9,6.5-6.5,6.5h-14c-3.6,0-6.5-2.9-6.5-6.5v-12
			C10.1,15.9,13,13,16.6,13z"/>
	</g>
	<g>
		<path class="st2" d="M39.3,11.6c-1.1-0.6-2.4,0.6-3.2,1.3c-1.7,1.7-3.2,3.6-4.8,5.4c-1.8,1.9-3.5,3.9-5.3,5.8
			c-1.1,1.1-2.2,2.2-2.9,3.5c-1.6-1.5-2.9-3.2-4.7-4.6c-1.3-1-3.4-1.7-3.3,0.7c0.1,3,2.8,6.3,4.7,8.4c0.8,0.9,1.9,1.8,3.2,1.8
			c1.5,0.1,3.1-1.8,4-2.8c1.6-1.8,2.9-3.7,4.4-5.5c1.9-2.4,3.9-4.7,5.8-7.1C38.5,16.8,42.3,13.1,39.3,11.6z M17,23.4
			c0,0-0.1,0-0.2,0c-0.2,0-0.3-0.1-0.5-0.2l0,0C16.5,23.2,16.7,23.2,17,23.4z"/>
	</g>
</g>
</svg>
