<?xml version="1.0" encoding="utf-8"?>
<!-- Generator: Adobe Illustrator 24.2.3, SVG Export Plug-In . SVG Version: 6.00 Build 0)  -->
<svg version="1.1" id="Layer_1" xmlns="http://www.w3.org/2000/svg" xmlns:xlink="http://www.w3.org/1999/xlink" x="0px" y="0px"
	 viewBox="0 0 52 22" style="enable-background:new 0 0 52 22;" xml:space="preserve">
<style type="text/css">
	.st0{fill:#FFFFFF;}
	.st1{fill:none;stroke:#707071;}
	.st2{fill:#89C0CF;}
</style>
<g id="Group_22_1_" transform="translate(-322 -243)">
	<g id="Rectangle_19_1_" transform="translate(322 243)">
		<path class="st0" d="M11.5,0.5h29C46.3,0.5,51,5.2,51,11l0,0c0,5.8-4.7,10.5-10.5,10.5h-29C5.7,21.5,1,16.8,1,11l0,0
			C1,5.2,5.7,0.5,11.5,0.5z"/>
		<path class="st1" d="M11.5,0.8h29c5.6,0,10.2,4.5,10.2,10.2l0,0c0,5.6-4.5,10.2-10.2,10.2h-29C5.9,21.2,1.3,16.6,1.3,11l0,0
			C1.3,5.4,5.9,0.8,11.5,0.8z"/>
	</g>
	<circle id="Ellipse_6_1_" class="st2" cx="362.5" cy="254" r="10.5"/>
</g>
</svg>
