<?xml version="1.0" encoding="utf-8"?>
<!-- Generator: Adobe Illustrator 24.2.3, SVG Export Plug-In . SVG Version: 6.00 Build 0)  -->
<svg version="1.1" id="Layer_1" xmlns="http://www.w3.org/2000/svg" xmlns:xlink="http://www.w3.org/1999/xlink" x="0px" y="0px"
	 viewBox="0 0 200 200" style="enable-background:new 0 0 200 200;" xml:space="preserve">
<style type="text/css">
	.st0{opacity:0.1;fill:#89C0CF;enable-background:new    ;}
	.st1{opacity:0.5;}
	.st2{fill:#89C0CF;}
	.st3{fill:#F9B7B9;}
	.st4{opacity:5.000000e-02;enable-background:new    ;}
	.st5{fill:#747A9D;}
	.st6{fill:#4C4D78;}
	.st7{opacity:0.1;enable-background:new    ;}
	.st8{opacity:0.2;fill:#FFFFFF;enable-background:new    ;}
	.st9{fill:#CBCDDA;}
	.st10{fill:#BA6B6B;}
	.st11{opacity:0.1;}
	.st12{opacity:0.8;}
	.st13{opacity:0.1;fill:#FFFFFF;enable-background:new    ;}
	.st14{opacity:0.2;enable-background:new    ;}
	.st15{fill:none;stroke:#6466AE;stroke-miterlimit:10;}
</style>
<g>
	<path id="Path_242" class="st0" d="M6.5,76.9c-1.5,4.4,2.8,8.4,6.2,11.6c4.6,4.4,8.3,9.7,10.7,15.6c1.6,3.5,2.4,7.4,2.2,11.3
		c-0.8,10.9-11.1,18.2-19.3,25.4c-1.2,1-2.2,2.2-3,3.5c-2.2,4.5,1.5,9.6,5.6,12.5c14.5,10.2,35.5,7.1,49.6-3.6
		c7.3-5.6,13.6-13.2,22.4-15.6c5.7-1.6,11.7-0.8,17.5-0.3c8.8,0.7,17.6,0.8,26.4,0.3c3.1-0.2,6.3-0.5,8.9-2.2
		c6.5-4.3,5.4-14.4,10.2-20.7c3.4-4.5,9.2-6.2,14.2-8.7c7.8-3.8,14.2-9.8,18.7-17.3c4.1-6.9,6.2-14.7,8.2-22.5
		c1.5-5.8,3.1-11.9,1.8-17.8c-1.3-5.9-6.5-11.3-12.5-10.8c-4.6,0.4-8.3,4-12.7,5.3c-10.6,3.1-20.9-7.7-31.9-6.7
		c-6.9,0.7-12.5,5.9-16.7,11.4c-4.2,5.5-7.8,11.8-13.4,15.9c-8.7,6.5-20.6,6.7-31.2,4.6c-10.6-2.1-20.8-6.2-31.5-7.6
		c-6.3-0.8-11.2,3-16.9,5C14.9,67.7,8.5,71.1,6.5,76.9z"/>
	<ellipse id="Ellipse_2" class="st0" cx="29.1" cy="159.5" rx="13.9" ry="4.2"/>
	<ellipse id="Ellipse_3" class="st0" cx="160.2" cy="105.6" rx="37" ry="2.5"/>
	<g id="Group_17" transform="translate(147.745 15.818)" class="st1">
		<path id="Path_243" class="st2" d="M-9.9,33.5L-9.9,33.5c1.1,0,1.9,0.9,1.9,1.9v53.9h-3.9V35.5C-11.9,34.4-11,33.5-9.9,33.5z"/>
		<path id="Path_244" class="st2" d="M32.6,33.5L32.6,33.5c1.1,0,1.9,0.9,1.9,1.9v53.9h-3.9V35.5C30.6,34.4,31.5,33.5,32.6,33.5
			C32.6,33.5,32.6,33.5,32.6,33.5z"/>
		<path id="Rectangle_128" class="st2" d="M45.8,43.6L45.8,43.6c0,1.1-0.9,1.9-1.9,1.9h-65.1c-1.1,0-1.9-0.9-1.9-1.9l0,0
			c0-1.1,0.9-1.9,1.9-1.9h65.1C44.9,41.7,45.8,42.6,45.8,43.6z"/>
		<path id="Rectangle_129" class="st2" d="M-14.6,36.4L-14.6,36.4c0.8,0,1.5,0.7,1.5,1.5v11.5c0,0.8-0.7,1.5-1.5,1.5l0,0
			c-0.8,0-1.5-0.7-1.5-1.5V37.9C-16.1,37-15.4,36.4-14.6,36.4z"/>
		<path id="Rectangle_130" class="st2" d="M-17.6,37.7L-17.6,37.7c0.8,0,1.5,0.7,1.5,1.5V48c0,0.8-0.7,1.5-1.5,1.5l0,0
			c-0.8,0-1.5-0.7-1.5-1.5v-8.8C-19.1,38.4-18.4,37.7-17.6,37.7z"/>
		<path id="Rectangle_131" class="st2" d="M37.2,50.9L37.2,50.9c-0.8,0-1.5-0.7-1.5-1.5V37.9c0-0.8,0.7-1.5,1.5-1.5l0,0
			c0.8,0,1.5,0.7,1.5,1.5v11.5C38.7,50.2,38,50.9,37.2,50.9z"/>
		<path id="Rectangle_132" class="st2" d="M40.2,49.5L40.2,49.5c-0.8,0-1.5-0.7-1.5-1.5v-8.8c0-0.8,0.7-1.5,1.5-1.5l0,0
			c0.8,0,1.5,0.7,1.5,1.5V48C41.7,48.9,41,49.5,40.2,49.5z"/>
	</g>
	<g id="Group_18" transform="translate(180.963 43.164)" class="st1">
		<path id="Path_245" class="st2" d="M-25.8,28.7h7.9c1.8,0,3.2,1.5,3.2,3.2v0v13.6H-29V32C-29,30.2-27.6,28.7-25.8,28.7z"/>
		<rect id="Rectangle_133" x="-22.9" y="44.4" class="st2" width="2.1" height="7"/>
		<rect id="Rectangle_134" x="-27.1" y="52.2" class="st2" width="2.1" height="7"/>
		<rect id="Rectangle_135" x="-18.3" y="52.2" class="st2" width="2.1" height="7"/>
		<rect id="Rectangle_136" x="-29" y="50.8" class="st2" width="14.4" height="1.9"/>
	</g>
	<ellipse id="Ellipse_4" class="st0" cx="93" cy="146.5" rx="79" ry="5.8"/>
	<path id="Path_246" class="st3" d="M113.4,125.9c0,0,5.4,2.5,8.1,2.5c1.5,0.4,3,0.8,4.4,1.4c1.6,0.7,7.7,1.1,7.7,1.1
		s7.2,2.6,8.1,3.9c0.9,1.2,3.5-4.4,3.5-4.4l-1.4-3.5l-26.5-5.1L113.4,125.9z"/>
	<path id="Path_247" class="st4" d="M113.4,125.9c0,0,5.4,2.5,8.1,2.5c1.5,0.4,3,0.8,4.4,1.4c1.6,0.7,7.7,1.1,7.7,1.1
		s7.2,2.6,8.1,3.9c0.9,1.2,3.5-4.4,3.5-4.4l-1.4-3.5l-26.5-5.1L113.4,125.9z"/>
	<path id="Path_248" class="st5" d="M140.3,133.6c0,0,3.3,4.4,1.9,7c-1.4,2.6-0.9,2.6,0,2.8c0.9,0.2,5.8,1.2,6.3-2.6
		s1.6-12.5,1.6-12.5l-7.2-0.7C142.9,127.6,144.8,134.1,140.3,133.6z"/>
	<path id="Path_249" class="st6" d="M98.8,120.1l15.1,7c0,0,4.7-3.7,4.4-5.6l-17.6-4.2L98.8,120.1z"/>
	<path id="Path_250" class="st7" d="M98.8,120.1l15.1,7c0,0,4.7-3.7,4.4-5.6l-17.6-4.2L98.8,120.1z"/>
	<path id="Path_251" class="st3" d="M162.2,129.2l-1.6,3.9l-3.7,0.9c-1-0.9-2.1-1.6-3.3-2.3c-2-1.1-4.6-2.3-7.1-2.1
		c0,0-9.8-1.6-10.4-2.3c0,0-6.3-1.4-7.7-1.2c-1.2-0.1-2.4-0.4-3.5-0.9c-1.4-0.6-2.7-1.2-2.7-1.2l4.6-7.2c0.5,0.2,1.1,0.4,1.6,0.6
		c3.1,0.8,6.2,1.2,9.4,1.2c7.4,0,17.6,7.5,17.6,7.5s0.1,0,0.3,0.1c0.8,0.2,2.9,0.8,3.9-0.1C161,125,162.2,129.2,162.2,129.2z"/>
	<path id="Path_252" class="st7" d="M162.2,129.2l-1.6,3.9l-3.7,0.9c-1-0.9-2.1-1.6-3.3-2.3c5.4,0.4,2.2-5.5,2.2-5.5h0
		c0.8,0.2,2.9,0.8,3.9-0.1C161,125,162.2,129.2,162.2,129.2z"/>
	<path id="Path_253" class="st5" d="M153.7,131.8c0,0,4.2,6,2.5,9.3s-1.1,3.4,0,3.6c1.1,0.2,7.4,1.6,8-3.4c0.5-3.8,0.1-11-0.2-14.2
		c-0.1-0.8-0.8-1.4-1.6-1.4c0,0,0,0,0,0l-6.2,0.6C156.2,126.3,159.5,132.5,153.7,131.8z"/>
	<path id="Path_254" class="st2" d="M52.9,137.6l0.2,8.6l1.9,1.4h6.7l1.2-1.8v-8.2l-1.9-1.8h-6.3L52.9,137.6z"/>
	<path id="Path_255" class="st8" d="M53.9,137.8c0,0,1.2,7.9,0,8.6l-0.9-0.2l-0.2-8.4L53.9,137.8z"/>
	<path id="Path_256" class="st2" d="M68.3,137.1l1.4-1.4h6.7l1.4,1.4c0,0,1.8,5.1,0.4,8.4l-1.6,1.6h-6.7l-1.6-1.4L68.3,137.1z"/>
	<path id="Path_257" class="st7" d="M52.9,137.6l0.2,8.6l1.9,1.4h6.7l1.2-1.8v-8.2l-1.9-1.8h-6.3L52.9,137.6z"/>
	<path id="Path_258" class="st7" d="M68.3,137.1l1.4-1.4h6.7l1.4,1.4c0,0,1.8,5.1,0.4,8.4l-1.6,1.6h-6.7l-1.6-1.4L68.3,137.1z"/>
	<path id="Path_259" class="st8" d="M69.9,137.5c0,0,1.4,6.1,0,8.2h-1.6v-8.6L69.9,137.5z"/>
	<path id="Path_260" class="st3" d="M62.9,108c0,0,0.7,6.8,0.7,7.7c-0.2,4.1,0,8.2,0.7,12.3c1.1,5.6-0.7,12.6-0.7,12.6h5.8l2.5-19
		l-1.8-10l-0.7-3.2L62.9,108z"/>
	<path id="Path_261" class="st4" d="M62.9,108c0,0,0.7,6.8,0.7,7.7c-0.2,4.1,0,8.2,0.7,12.3c1.1,5.6-0.7,12.6-0.7,12.6h5.8l2.5-19
		l-1.8-10l-0.7-3.2L62.9,108z"/>
	<path id="Path_262" class="st9" d="M61.8,90.6c0,0-7.7,0.2-1.6,13c0.6,2,1.2,4.1,1.6,6.1c0,0.9,7.9,0.9,8.8,0
		c0.9-0.9-1.4-8.1-1.4-11.4C69.2,95,66.9,89.5,61.8,90.6z"/>
	<path id="Path_263" class="st4" d="M61.8,90.6c0,0-7.7,0.2-1.6,13c0.6,2,1.2,4.1,1.6,6.1c0,0.9,7.9,0.9,8.8,0
		c0.9-0.9-1.4-8.1-1.4-11.4C69.2,95,66.9,89.5,61.8,90.6z"/>
	<path id="Path_264" class="st3" d="M52.5,83c0,0,6.7,7.2,12.3,1.9l-0.7,18.6c0,0-9.1-11.1-15.4-10.2L52.5,83z"/>
	<path id="Path_265" class="st7" d="M128.6,117.3c-0.3,2.1-1.1,6.4-3.5,7.8c-1.4-0.6-2.7-1.2-2.7-1.2l4.6-7.2
		C127.5,117,128,117.2,128.6,117.3z"/>
	<path id="Path_266" class="st6" d="M128.2,116.2c0,0-0.5,8.6-4.7,9.3L98,120.9c-1.2-0.2-2.4-0.7-3.4-1.5c-1.1-0.8-2.1-1.8-3-2.9
		c-0.4-0.4-0.6-0.9-0.6-1.5c0.2-1.9,7.9-6.5,5.3-14.6c0.4-0.3,0.8-0.5,1.2-0.7c2.2-0.9,7.3-1.6,14.6,6
		C112,105.7,125.5,116.6,128.2,116.2z"/>
	<path id="Path_267" class="st2" d="M59.3,138.3l0.2,8.6l1.9,1.4h6.7l1.2-1.8v-8.3l-1.9-1.8h-6.3L59.3,138.3z"/>
	<path id="Path_268" class="st8" d="M60.4,138.5c0,0,1.2,7.9,0,8.6l-0.9-0.2l-0.2-8.4H60.4z"/>
	<path id="Path_269" class="st2" d="M78.7,137.6l1.4-1.4h6.7l1.4,1.4c0,0,1.8,5.1,0.4,8.4l-1.6,1.6h-6.7l-1.6-1.4L78.7,137.6z"/>
	<path id="Path_270" class="st8" d="M80.2,138c0,0,1.4,6.1,0,8.2h-1.6v-8.6L80.2,138z"/>
	<path id="Path_271" class="st2" d="M69.3,141h9.5c0.8,0,1.4,0.7,1.3,1.5l0,0c0,0.8-0.6,1.5-1.3,1.5h-9.5c-0.8,0-1.4-0.7-1.3-1.5
		c0,0,0-0.1,0-0.1l0,0C68,141.6,68.6,141,69.3,141z"/>
	<path id="Path_272" class="st7" d="M96.7,113.6c-1.7,1.1-3.4,2-5.2,2.9c-0.4-0.4-0.6-0.9-0.6-1.5c0.2-1.9,7.9-6.5,5.3-14.6
		c0.4-0.3,0.8-0.5,1.2-0.7c0.4,0,0.8-0.1,1.2-0.2C98.7,99.5,100.2,111.1,96.7,113.6z"/>
	<path id="Path_273" class="st9" d="M57.3,96.6c1.6,1.6,3.3,3,5.2,4.3c2.3,1.5-1.8-14-1.8-14s2.6-2.1,4.1-3.3c1-0.8,2.3-1.3,3.6-1.2
		c3.5,0.2,9.9,1.7,15.1,8.8c7.5,10.4,14.4,8.2,14.4,8.2s1.6,11.6-1.9,14c-3.5,2.5-7.4,3.3-6.7,4.7c0.7,1.4-3.2-6.8-11.9-8.2
		S59,102.5,59.2,99.5C59.2,99.5,56.6,97.5,57.3,96.6z"/>
	<path id="Path_274" class="st7" d="M55.5,87.6c0-0.5,0-1-0.1-1.5c-2.3-1.1-2-2.7-2-2.7l-3.9,10.4c1.6-0.1,3.1,0.2,4.5,1
		C56.1,93.1,55.5,90.4,55.5,87.6z"/>
	<circle id="Ellipse_5" class="st3" cx="47.8" cy="87.4" r="8.8"/>
	<path id="Path_275" class="st7" d="M39.8,89.4c-0.1,0.5-0.4,1-0.9,1.3c-0.6,0.3-1.4,0.2-1.9-0.3c-0.5-0.5-0.8-1.1-0.9-1.8
		c-0.2-0.9-0.2-1.9,0.1-2.9c0.2-0.8,0.6-1.5,0.8-2.3c0.2-0.9,0.1-1.8,0.3-2.6c0.4-1.1,1-2.2,1.8-3.1c0.5-0.7,1.2-1.2,2.1-1.4
		l3.7-1.1c0.7-0.2,1.4-0.4,2.1-0.5c0.9-0.1,1.9,0,2.8,0.2c0.7,0.2,1.4,0.5,2,0.9c0.6,0.5,1.1,1,1.6,1.6c1.9,2.5,3,6.7,5.1,9.2
		c-0.8,0.2-1.6-0.6-2.4-0.3c-0.1,0-0.2,0.1-0.4,0c-0.1-0.1-0.2-0.2-0.3-0.3c-0.7-1.2-1.8-2.2-3.1-2.7c-1-0.4-2.3-0.4-2.8,0.5
		c-0.3,0.7-0.3,1.4-0.1,2.1c0.2,0.7,0,1.4-0.5,2c-0.3,0.2-0.7,0.3-1,0.3c-1.7,0.2-3.4,0.1-5.1-0.5c-0.6-0.2-1.2-0.8-1.8-0.6
		C40.2,87.6,40,88.7,39.8,89.4z"/>
	<path id="Path_276" class="st10" d="M39.6,89.2c-0.1,0.5-0.4,1-0.9,1.3c-0.6,0.3-1.4,0.2-1.9-0.3c-0.5-0.5-0.8-1.1-0.9-1.8
		c-0.2-0.9-0.2-1.9,0.1-2.9c0.2-0.8,0.6-1.5,0.8-2.3c0.2-0.9,0.1-1.8,0.3-2.6c0.4-1.1,1-2.2,1.8-3.1c0.5-0.7,1.2-1.2,2.1-1.4
		l3.7-1.1c0.7-0.2,1.4-0.4,2.1-0.5c0.9-0.1,1.9,0,2.8,0.2c0.7,0.2,1.4,0.5,2,0.9c0.6,0.5,1.1,1,1.6,1.6c1.9,2.5,3,6.7,5.1,9.2
		c-0.8,0.2-1.6-0.6-2.4-0.3c-0.1,0-0.2,0.1-0.4,0c-0.1-0.1-0.2-0.2-0.3-0.3c-0.7-1.2-1.8-2.2-3.1-2.7c-1-0.4-2.3-0.4-2.8,0.5
		c-0.3,0.7-0.3,1.4-0.1,2.1c0.2,0.7,0,1.4-0.5,2c-0.3,0.2-0.7,0.3-1,0.3c-1.7,0.2-3.4,0.1-5.1-0.5c-0.6-0.2-1.2-0.8-1.8-0.6
		C40,87.4,39.8,88.5,39.6,89.2z"/>
	<g id="Group_19" transform="translate(66.023 60.896)" class="st11">
		<path id="Path_277" d="M-4.8,25.6l-0.6,0.5c0,0,2.5,9.1,2.6,12.6C-1.5,38.4-4,28.7-4.8,25.6z"/>
		<path id="Path_278" d="M30.4,51.3c-3.5,2.5-7.4,3.3-6.7,4.7c0.7,1.4-3.2-6.8-11.9-8.2C3.5,46.5-5.5,41-6.4,37.8
			c-1.3-1.1-2.3-2.1-2.3-2.1c-0.7,0.9,1.8,2.9,1.8,2.9c-0.2,3,9.5,9.1,18.3,10.5s12.6,9.7,11.9,8.2c-0.7-1.4,3.2-2.3,6.7-4.7
			c1-0.7,1.6-2.2,1.9-3.9C31.7,49.8,31.1,50.7,30.4,51.3z"/>
	</g>
	<path id="Path_279" class="st3" d="M78.7,129c-0.5,0.7-0.9,7.9-0.9,7.9s2.1,10.4-4.4,9.3s-0.9-8.4-0.9-8.4l-0.9-10.2
		c-3.3-8.8-2.6-15.1-2.6-15.1l-0.6-5.7l-0.3-2.3l7.6-1.8c-0.2,0.3-0.1,2,0.1,4c0.3,3.1,0.8,6.9,0.8,6.9
		C78.1,115.3,79.2,128.3,78.7,129z"/>
	<path id="Path_280" class="st7" d="M67.9,86.9c0,0-7.7,0.2-1.6,13c0.6,2,1.2,4.1,1.6,6.1c0,0.9,7.9,0.9,8.8,0s-1.4-8.1-1.4-11.4
		C75.3,91.3,73,85.8,67.9,86.9z"/>
	<path id="Path_281" class="st7" d="M75.7,106.7c-2.4,0.4-4.9,0.5-7.4,0.1l-0.3-2.3l7.5-1.8C75.5,103,75.6,104.7,75.7,106.7z"/>
	<path id="Path_282" class="st9" d="M67.6,86.9c0,0-7.7,0.2-1.6,13c0.6,2,1.2,4.1,1.6,6.1c0,0.9,7.9,0.9,8.8,0S75,98,75,94.6
		C75,91.3,72.7,85.8,67.6,86.9z"/>
	<g id="Group_20" transform="translate(9.468 94.704)" class="st1">
		<path id="Path_283" class="st2" d="M7.6,19.7L2,19.8L1.1,21v4.3l1.1,0.8h5.4l1.1-1.3v-4.1L7.6,19.7z"/>
		<path id="Path_284" class="st8" d="M7.5,20.4c0,0-5.1,0.8-5.6,0L2,19.8l5.5-0.1V20.4z"/>
		<path id="Path_285" class="st2" d="M8.1,32.2L9,33.1v4.3l-0.9,0.9c0,0-3.3,1.1-5.5,0.2l-1-1v-4.3l0.9-1L8.1,32.2z"/>
		<path id="Path_286" class="st8" d="M7.8,33.3c0,0-4,0.9-5.4,0v-1h5.6L7.8,33.3z"/>
		<path id="Path_287" class="st2" d="M5.9,26.1v6.2c0,0.5-0.5,0.9-1,0.9l0,0c-0.5,0-0.9-0.4-1-0.9v-6.2c0-0.5,0.5-0.9,1-0.9
			c0,0,0.1,0,0.1,0l0,0C5.5,25.3,5.9,25.7,5.9,26.1z"/>
		<path id="Path_288" class="st2" d="M16.6,19.9L11,20l-0.9,1.3v4.3l1.1,0.8h5.4l1.1-1.3V21L16.6,19.9z"/>
		<path id="Path_289" class="st8" d="M16.4,20.5c0,0-5.1,0.8-5.6,0L11,20l5.5-0.1V20.5z"/>
		<path id="Path_290" class="st2" d="M17,32.4l0.9,0.9v4.3L17,38.6c0,0-3.3,1.1-5.5,0.2l-1-1v-4.3l0.9-1L17,32.4z"/>
		<path id="Path_291" class="st8" d="M16.8,33.4c0,0-4,0.9-5.4,0v-1H17L16.8,33.4z"/>
		<path id="Path_292" class="st2" d="M14.8,26.3v6.2c0,0.5-0.5,0.9-1,0.9l0,0c-0.5,0-0.9-0.4-1-0.9v-6.2c0-0.5,0.5-0.9,1-0.9
			c0,0,0.1,0,0.1,0l0,0C14.5,25.5,14.8,25.9,14.8,26.3z"/>
		<path id="Path_293" class="st2" d="M28,23.2l-4.6,0.1l-0.8,1v3.6l0.9,0.7H28l0.9-1v-3.4L28,23.2z"/>
		<path id="Path_294" class="st8" d="M27.9,23.7c0,0-4.2,0.7-4.6,0l0.1-0.5l4.5-0.1L27.9,23.7z"/>
		<path id="Path_295" class="st2" d="M28.3,33.5l0.8,0.8v3.6l-0.8,0.8c0,0-2.7,0.9-4.5,0.2L23,37.9v-3.6l0.8-0.8L28.3,33.5z"/>
		<path id="Path_296" class="st8" d="M28.1,34.3c0,0-3.3,0.8-4.4,0v-0.8h4.6L28.1,34.3z"/>
		<path id="Path_297" class="st2" d="M26.5,28.5v5.1c0,0.4-0.4,0.7-0.8,0.7l0,0c-0.4,0-0.8-0.3-0.8-0.7v-5.1c0-0.4,0.4-0.7,0.8-0.7
			c0,0,0,0,0.1,0l0,0C26.2,27.8,26.5,28.1,26.5,28.5z"/>
		<path id="Path_298" class="st2" d="M35.3,23.3l-4.6,0.1l-0.8,1V28l0.9,0.7h4.4l0.9-1v-3.4L35.3,23.3z"/>
		<path id="Path_299" class="st8" d="M35.2,23.9c0,0-4.2,0.7-4.6,0l0.1-0.5l4.5-0.1L35.2,23.9z"/>
		<path id="Path_300" class="st2" d="M35.7,33.6l0.8,0.8v3.6l-0.8,0.8c0,0-2.7,0.9-4.5,0.2L30.4,38v-3.6l0.8-0.8L35.7,33.6z"/>
		<path id="Path_301" class="st8" d="M35.5,34.5c0,0-3.3,0.8-4.4,0v-0.8h4.6L35.5,34.5z"/>
		<path id="Path_302" class="st2" d="M33.9,28.6v5.1c0,0.4-0.4,0.7-0.8,0.7l0,0c-0.4,0-0.8-0.3-0.8-0.7v-5.1c0-0.4,0.4-0.7,0.8-0.7
			c0,0,0,0,0.1,0l0,0C33.6,27.9,33.9,28.2,33.9,28.6z"/>
	</g>
	<g id="Group_21" transform="translate(21.627 130.313)" class="st12">
		<path id="Path_303" class="st2" d="M3.5,18.3c0,0-2.7-0.9-4,1.5c-0.7,1.3-0.7,2.9,0.1,4.2c1.1,2.2,3.5,3.6,5.9,3.4
			c2.8-0.2,3.8-2.3,4-4.3c0.3-2.4-1.4-4.7-3.8-5c-0.7-0.1-1.4,0-2.1,0.2L3.5,18.3z"/>
		<path id="Path_304" class="st13" d="M0.1,24.2c-0.7-1.3-0.8-2.9-0.1-4.2c1.3-2.4,4-1.5,4-1.5l0.1,0c1-0.4,2.2-0.3,3.2,0.1
			c-1.1-0.7-2.5-0.8-3.7-0.4l-0.1,0c0,0-2.7-0.9-4,1.5c-0.7,1.3-0.7,2.9,0.1,4.2c0.7,1.3,1.7,2.3,3,2.9C1.5,26.1,0.7,25.2,0.1,24.2z
			"/>
		<path id="Path_305" class="st14" d="M2.1,19.4c0,0,1,0.8,3.4,0"/>
		<path id="Path_306" class="st2" d="M1.9,13.7c0,0,1.7,4.7,1.6,5.9l1.4-0.1c0,0-2.3-4.1-1.7-5.7L1.9,13.7z"/>
		<path id="Path_307" class="st14" d="M1.9,13.7c0,0,1.7,4.7,1.6,5.9l1.4-0.1c0,0-2.3-4.1-1.7-5.7L1.9,13.7z"/>
		<path id="Path_308" class="st2" d="M8.9,14.1c0,0-2.7-1.4-3.9-0.2s-1.4,4.1-1.4,4.1S8,18.5,8.9,14.1z"/>
		<path id="Path_309" class="st13" d="M8.9,14.1c0,0-2.7-1.4-3.9-0.2s-1.4,4.1-1.4,4.1S8,18.5,8.9,14.1z"/>
		<path id="Path_310" class="st15" d="M3.6,17.9c0,0,0.7-3.4,5.3-3.8"/>
	</g>
	<path id="Path_311" class="st2" d="M36.5,152.8c0,0-2.7-0.9-4,1.5c-0.7,1.3-0.7,2.9,0.1,4.2c1.1,2.2,3.5,3.6,5.9,3.4
		c2.8-0.2,3.8-2.3,4-4.3c0.3-2.4-1.4-4.7-3.8-5c-0.7-0.1-1.4,0-2.1,0.2L36.5,152.8z"/>
	<path id="Path_312" class="st13" d="M33.1,158.7c-0.7-1.3-0.8-2.9-0.1-4.2c1.3-2.4,4-1.5,4-1.5l0.1,0c1-0.4,2.2-0.3,3.2,0.1
		c-1.1-0.7-2.5-0.8-3.7-0.4l-0.1,0c0,0-2.7-0.9-4,1.5c-0.7,1.3-0.7,2.9,0.1,4.2c0.7,1.3,1.7,2.3,3,2.9
		C34.6,160.7,33.7,159.8,33.1,158.7z"/>
	<path id="Path_313" class="st14" d="M35.1,154c0,0,1,0.8,3.4,0"/>
	<path id="Path_314" class="st2" d="M34.9,148.2c0,0,1.7,4.7,1.6,5.9l1.4-0.1c0,0-2.3-4.1-1.7-5.7L34.9,148.2z"/>
	<path id="Path_315" class="st14" d="M34.9,148.2c0,0,1.7,4.7,1.6,5.9l1.4-0.1c0,0-2.3-4.1-1.7-5.7L34.9,148.2z"/>
	<path id="Path_316" class="st2" d="M41.9,148.6c0,0-2.7-1.4-3.9-0.2c-1.2,1.1-1.4,4.1-1.4,4.1S41,153.1,41.9,148.6z"/>
	<path id="Path_317" class="st13" d="M41.9,148.6c0,0-2.7-1.4-3.9-0.2c-1.2,1.1-1.4,4.1-1.4,4.1S41,153.1,41.9,148.6z"/>
	<path id="Path_318" class="st15" d="M36.6,152.5c0,0,0.7-3.4,5.3-3.8"/>
	<path id="Path_319" class="st2" d="M14.8,141.8c0,0,0.3-0.3-0.2-0.4v-0.5h0.3c0-1.2-0.8-2.3-2-2.5v-0.6h0.1V137H11v0.8H11v0.6
		c-1.2,0.3-2,1.3-2,2.5h0.3v0.5c0,0-0.6,0.3,0,0.8c0.6,0.5,0.5,0.9,0.5,0.9s-0.3,1-0.8,1.1v9.3c0,1.1,0.9,2.1,2.1,2.1h1.6
		c1.1,0,2.1-0.9,2.1-2.1l0,0v-9.3c0,0-0.9-0.7-0.8-1.1C14.2,142.7,14.5,142.2,14.8,141.8z"/>
</g>
</svg>
