<?xml version="1.0" encoding="utf-8"?>
<!-- Generator: Adobe Illustrator 24.2.3, SVG Export Plug-In . SVG Version: 6.00 Build 0)  -->
<svg version="1.1" id="Layer_1" xmlns="http://www.w3.org/2000/svg" xmlns:xlink="http://www.w3.org/1999/xlink" x="0px" y="0px"
	 viewBox="0 0 50 50" style="enable-background:new 0 0 50 50;" xml:space="preserve">
<style type="text/css">
	.st0{fill:#FFFFFF;}
	.st1{fill:none;stroke:#707071;}
</style>
<g id="Group_114" transform="translate(0 0.064)">
	<g id="Rectangle_13">
		<path class="st0" d="M18,11.9h14c3.9,0,7,3.1,7,7v12c0,3.9-3.1,7-7,7H18c-3.9,0-7-3.1-7-7v-12C11,15.1,14.1,11.9,18,11.9z"/>
		<path class="st1" d="M18,12.4h14c3.6,0,6.5,2.9,6.5,6.5v12c0,3.6-2.9,6.5-6.5,6.5H18c-3.6,0-6.5-2.9-6.5-6.5v-12
			C11.5,15.3,14.4,12.4,18,12.4z"/>
	</g>
</g>
</svg>
