<?xml version="1.0" encoding="utf-8"?>
<!-- Generator: Adobe Illustrator 24.2.3, SVG Export Plug-In . SVG Version: 6.00 Build 0)  -->
<svg version="1.1" id="Layer_1" xmlns="http://www.w3.org/2000/svg" xmlns:xlink="http://www.w3.org/1999/xlink" x="0px" y="0px"
	 viewBox="0 0 200 200" style="enable-background:new 0 0 200 200;" xml:space="preserve">
<style type="text/css">
	.st0{fill:#89C0CF;}
</style>
<g id="Group_159" transform="translate(7301.973 -991.307)">
	<path id="Path_768" class="st0" d="M-7230,1007.1c-0.3,1.1-0.5,2.1-0.6,3.2c-0.1,1-0.4,2.7-0.5,3.8c-0.4,6.4-0.4,12.8,0,19.2
		c0.1,1.1,0.4,3.1,0.5,4.4s0.4,3.2,0.6,4.1c0.9,5.1,1.8,9.4,2.3,11.1c0.1,0.5,0.4,1.7,0.6,2.5c0.4,1.9,1.1,4.1,1.6,6.1
		c0.2,0.8,0.6,2,0.7,2.6c0.1,0.5,0.3,0.9,0.5,1.4c0.2,0.2,0.2,0.5,0.2,0.8c0,0.5,0.2,0.9,0.4,1.4c0.2,0.5,0.6,1.8,1,3
		c0.2,0.8,0.5,1.6,0.8,2.3c1.1,4.9,1.7,9.8,1.9,14.8c0,1.4,0.2,2.7,0.6,4.1c0.7,0.5,1.6,0.5,2.2-0.1c0.4-0.8,0.7-1.8,0.8-2.7
		c0.3-2.1,0.4-3.3,1.1-11.8c0.6-9,0.2-18-1.1-27c-0.6-3.3-1.5-6.4-2.8-9.5c-1-2.4-1.8-4.9-2.5-7.4c-0.1-0.6-0.3-1.1-0.5-1.7
		c-0.5-1.4-0.8-2.7-1.2-4.1c-0.1-0.6-0.3-1.1-0.5-1.7c-0.2-0.4-0.3-0.9-0.4-1.4c-0.1-0.5-0.4-1.7-0.7-2.8c-0.9-2.9-2-7.2-2.5-9.1
		c-0.1-0.6-0.3-1.1-0.5-1.7c-0.5-1.3-0.8-2.6-1.1-4C-7229.3,1005.6-7229.6,1005.6-7230,1007.1z"/>
	<path id="Path_769" class="st0" d="M-7175.4,1007.4c-0.8,2.7-1.7,5.7-2.5,8.6c-0.2,0.9-0.6,2.3-0.9,3c-0.2,2-0.7,4-1.6,5.8
		c-0.3,0.6-1,3.8-1.2,4.2s-0.3,1.3-0.5,1.9c-0.2,0.6-0.6,1.9-0.9,2.8c-0.9,2.9-2.1,6.6-2.3,6.9c-1,2.5-1.8,5.1-2.5,7.7
		c-0.2,0.7-0.4,2.2-0.6,3.3s-0.4,2.9-0.6,4.1c-0.4,2.8-0.4,22.8,0,26.3c0.2,1.4,0.4,3.8,0.6,5.3c0.3,2.9,0.6,4.2,1.2,4.6
		c0.4,0.3,1.8,0.3,2,0c0.5-2.7,0.8-5.4,1-8.1c0.2-5.2,1.2-10.3,3-15.2c1.1-3.2,2-6.1,2-6.4c0-0.3,0.1-0.5,0.2-0.7
		c0.3-0.5,0.4-1,0.5-1.5c0.2-0.7,0.5-2,0.7-2.9c1.3-4.8,2.4-9.6,3.2-14.5c0.2-1,0.4-2.5,0.6-3.5c0.6-4.1,0.9-8.2,1-12.3
		c-0.2-2.7-0.1-5.4,0-8.1c-0.1-4.4-0.7-8.7-1.8-12.9C-7174.7,1005.8-7175.1,1006.5-7175.4,1007.4z"/>
	<path id="Path_770" class="st0" d="M-7225.6,1011c0,1.1,0.1,2.2,0.2,3.3c0.1,0.7,0.3,1.7,0.4,2.3c0.2,1.5,1.5,6.5,2.2,9
		c1,3.3,4,12.4,4.2,12.7c0.2,0.4,0.3,0.9,0.4,1.3c0.1,0.4,0.2,0.7,0.5,1c0.2,0.2,0.3,0.4,0.2,0.6c0.5,2,1.2,3.9,2.1,5.7
		c0.2,0.3,0.3,0.7,0.4,1.1c0.4,1.3,0.9,2.5,1.5,3.7c0.1,0.2,0.2,0.4,0.2,0.6c0.1,0.5,0.2,0.9,0.4,1.4c0.2,0.6,0.6,1.4,0.8,1.9
		c0.2,0.4,0.3,0.8,0.4,1.2c0.1,0.4,0.2,0.8,0.4,1.2c0.2,0.5,0.8,1.9,1.3,3.2s1,2.7,1.2,3.2c0.6,1.5,1.1,3,1.6,4.6
		c1.1,3.5,1.1,3.5,1.5,0.4c0.7-6.4,0.4-12.9-1-19.2c-0.8-3.6-1.8-7.1-3.1-10.5c-0.2-0.4-0.5-1.1-0.7-1.5s-0.6-1.4-0.9-2.1
		s-1.6-3.5-1.6-3.6c-0.5-0.7-0.9-1.4-1.2-2.2c-0.6-1.1-1.3-2.5-1.6-2.9c-0.3-0.5-0.6-1.1-0.8-1.6c-0.9-1.7-1.9-3.3-3.1-4.8
		c-0.1-0.1-0.9-1.9-1.8-3.3c-1.5-2.3-2.7-4.8-3.5-7.4C-7225.3,1008.5-7225.6,1008.9-7225.6,1011z"/>
	<path id="Path_771" class="st0" d="M-7178.8,1009.1c-0.2-0.1-0.9,1.9-1,2.3c-1,2.6-2.3,5-3.7,7.4c-0.5,0.8-1,1.7-1.4,2.5
		c0,0.2-0.1,0.3-0.2,0.4c-0.9,1.1-1.7,2.4-2.3,3.8c0,0.2-0.1,0.3-0.2,0.4c-1.2,1.6-2.2,3.3-3,5l-1,1.9c-0.1,0.4-0.2,0.7-0.3,1
		c-0.5,0.5-0.8,1.2-1.1,1.8c-0.6,1.2-1.2,2.5-1.6,3.8c0.1,0.2-0.7,1.7-1.3,3.4c-1.1,3.2-1.9,6.4-2.4,9.7c-0.1,0.9-0.4,2.7-0.5,4
		c-0.4,5-0.3,10,0.2,14.9c0.2,0.4,0.4,0.3,0.8-1c0.7-2.4,2.1-6.1,2.5-7.1c0.2-0.4,0.3-0.8,0.4-1.3c0-0.2,0.1-0.4,0.2-0.6
		c0.2-0.3,0.4-0.7,0.5-1.1c0.1-0.6,0.3-1.3,0.6-1.9c1-2.3,1.2-2.7,2-5c1.4-3.7,2.4-6.4,2.9-7.7c0.2-0.4,0.3-0.8,0.4-1.2
		c0-0.2,0.1-0.5,0.2-0.6c0.2-0.4,0.4-0.8,0.5-1.2c0.2-0.5,0.5-1.7,0.9-2.5c0.3-0.8,0.7-1.8,0.7-2.1c0.1-0.4,0.2-0.8,0.4-1.1
		c0.3-0.7,1.1-2.9,1.3-3.6c0.1-0.5,0.3-1,0.5-1.4c1-2.9,1.9-5.9,2.6-8.9c0-0.5,0.1-1,0.4-1.4c0.3-0.6,0.5-1.3,0.6-1.9
		c0.1-0.5,0.3-1.8,0.5-2.8C-7178.5,1012.7-7178.3,1009.5-7178.8,1009.1z"/>
	<path id="Path_772" class="st0" d="M-7222.5,1010.3c0.6,1.2,2.7,4.1,2.7,4.3c0.4,0.8,0.8,1.5,1.4,2.2c0.2,0.2,0.3,0.5,0.5,0.7
		c1.3,2.2,3.5,5.8,3.7,5.9c0.3,0.4,0.5,0.9,0.7,1.4c0.8,1.7,1.2,3.4,1.4,5.3c1.1,4,2.6,7.9,4.4,11.6c0.4,0,4-17.5,4-17.5
		s-6-4.8-9.3-7.8c-0.5-0.4-1.2-1.1-1.5-1.4c-2.1-1.6-4.3-3.1-6.5-4.4C-7222,1010.1-7222.7,1010-7222.5,1010.3z"/>
	<path id="Path_773" class="st0" d="M-7181.6,1010.2c-0.7,0.2-1.3,0.4-1.9,0.7c-0.4,0-4.8,3.3-5,3.3c-2,1.3-3.8,2.8-5.3,4.5
		c-1.2,1.2-2.7,2.2-2.7,2.3c0,0.1-3.3,2.4-3.8,2.9c-0.9,0.9,2.1,20.9,2.6,20.9c2.3-5.1,4.2-10.3,5.8-15.6c0.2-1.2,0.5-2.4,0.9-3.6
		c0.2-0.5,1-1.7,1.1-2c0.3-0.6,0.6-1.2,1-1.8c0.3-0.4,0.6-0.9,0.8-1.5c0-0.2,1.7-2.2,1.7-2.4c0-0.1,1.1-1.8,2.5-3.9
		C-7182.7,1012-7181.6,1010.3-7181.6,1010.2z"/>
	<path id="Path_774" class="st0" d="M-7204.2,1024.3c-0.3,0.4-1.4,2.8-3.1,6.4c-0.5,1.1-1.1,2.6-1.6,3.3c-0.9,1.4,0,5,0.5,6.4
		c0.6,1.8,0.8,2.8,1.1,3.4c0.3,0.6,1.3,2.6,1.5,2.9c0.6,0.8,0.9-2.5,1.3-4.1c0.7-4,1-8.1,1-12.2
		C-7203.4,1024.6-7203.5,1023.4-7204.2,1024.3z"/>
	<path id="Path_775" class="st0" d="M-7200.6,1031.3c0,2.8,0.1,5.5,0.4,8.2c0.1,0.4,1.2,5.1,1.2,5.5c0.3,0.5,0.8,1,1.3,1.3
		c0.6-1.9,1.1-3.9,1.4-5.8c0.6-1.2,1-2.5,1.2-3.9c0.2-1.3,0-2.6-0.8-3.7c-2.5-5.2-4.4-9-4.6-9
		C-7200.7,1023.9-7200.7,1025.6-7200.6,1031.3z"/>
	<path id="Path_776" class="st0" d="M-7233.1,1035.5c-0.1,1.9-1.1,7.6-1.9,10.9c-0.2,0.7-0.4,2-0.5,2.8c-0.3,2.2-0.8,4.9-1.2,6.6
		c-0.3,2.6-0.4,5.2-0.4,7.8c-0.2,3,0.1,6,0.7,8.9c0.1,0.8,0.2,1.5,0.6,2.2c0.4,1,2.1,4.4,2.3,4.7c0.2,0.3,1.3,1.9,2.4,3.6
		c1.1,1.9,2.4,3.7,3.7,5.4c0.3,0.3,0.6,0.7,0.8,1.1c0.5,0.8,1.1,1.6,1.8,2.3c0.3,0.3,0.6,0.7,0.7,1.1c0,0.4,0.7,0.3,1.2-0.2
		c0.4-0.4,0.5-1.2,0.4-5.1c0-2.5-0.1-5.5-0.2-6.6c-0.2-2.4-0.6-4.9-1.1-7.3c-0.2-0.9-1.9-7.7-2.1-8.6c-0.2-0.9-1.4-5.8-1.6-6.8
		c-0.2-1-0.6-2.7-0.9-3.7s-1.4-5.8-1.5-6.5c-0.1-0.7-0.4-1.8-0.5-2.3c-0.4-1.8-1.9-8.6-2.1-10.4
		C-7232.6,1033.6-7233,1033.7-7233.1,1035.5z"/>
	<path id="Path_777" class="st0" d="M-7171.9,1035.5c-0.2,0.9-0.5,2.2-0.6,3c-0.1,0.8-0.4,2.3-0.7,3.3c-0.2,1.1-0.6,2.9-0.8,4.1
		c-0.1,0.8-0.3,1.6-0.5,2.4c-0.2,0.5-0.3,1-0.4,1.6c-0.2,1.2-0.5,2.5-1.5,6.7c-0.2,1-0.6,2.5-0.8,3.4c-0.2,0.9-0.5,2.2-0.7,2.8
		c-0.2,0.6-0.5,2-0.7,3c-0.2,1.1-0.6,2.5-0.8,3.3c-0.2,0.8-0.5,2.2-0.8,3.3c-0.2,1.1-0.5,2.5-0.7,3.3c-0.6,3.8-0.9,7.7-1.1,11.6
		c-0.2,1.5-0.1,3.1,0.3,4.6c0.2,0.6,0.6,1.1,0.9,1.1c0.2,0,0.8-0.5,1.3-1.2c0.3-0.5,0.7-0.9,1.1-1.2c0.1,0,0.2-0.2,0.2-0.4
		c0-0.2,0.1-0.4,0.3-0.4c0.2,0,0.6-0.5,1-1.2c0.4-0.7,0.8-1.2,1-1.2s0.2-0.2,0.2-0.4c0-0.2,0.1-0.4,0.2-0.5c0.6-0.6,1.1-1.3,1.4-2.1
		c0-0.2,0.1-0.3,0.2-0.4c0.6-0.6,1.1-1.3,1.4-2.1c0-0.2,0.1-0.3,0.2-0.4c0.8-0.8,1.4-1.8,1.9-2.8c0.2-0.4,0.4-0.9,0.8-1.2
		c0.1-0.1,0.2-0.3,0.2-0.4c0.1-0.4,0.2-0.8,0.4-1.2c2.1-5.4,2.7-11.2,1.8-16.9c-0.9-6.4-1.3-8.9-1.7-10.6c-0.6-2.8-1.7-8.6-2.1-11.6
		c-0.1-0.9-0.3-1.8-0.5-2.7C-7171.5,1033.9-7171.7,1034.6-7171.9,1035.5z"/>
	<path id="Path_778" class="st0" d="M-7213.3,1058.1c-0.1,0.5-0.1,4.8-0.1,9.5c0.3,5.1,0,10.1-0.9,15.1c-0.4,3.5-0.4,7,0.1,10.4
		c0.4,1.1,1,1.7,1.7,1.7c0.7,0,2.3-1.6,2.9-3c0.6-1.1,1.1-2.4,1.5-3.6c0.1-0.6,0.2-1.2,0.4-1.7c1.3-4.2,1.5-8.7,0.7-13
		c-0.1-0.5-0.5-1.9-0.9-3.2c-0.2-0.9-0.5-1.8-0.9-2.6c-0.1-0.3-0.2-0.5-0.2-0.8c-0.1-0.5-0.2-0.9-0.4-1.4c-0.2-0.4-0.4-0.8-0.4-1.2
		c-0.1-0.4-0.2-0.9-0.4-1.2c-0.2-0.3-0.3-0.7-0.4-1.1c-0.3-1.2-0.8-2.3-1.3-3.3C-7212.6,1057-7213.1,1056.9-7213.3,1058.1z"/>
	<path id="Path_779" class="st0" d="M-7192,1057.7c-0.2,0.3-0.4,0.7-0.4,1.1c-0.1,0.3-0.2,0.7-0.4,0.9c-0.2,0.3-0.4,0.7-0.4,1.2
		c0,0.3-0.1,0.5-0.2,0.7c-1.1,2.6-2,5.3-2.7,8c-0.2,0.8-0.6,2.1-0.8,2.7c-0.2,0.6-0.3,1.2-0.4,1.9c0,0.6-0.2,1.2-0.3,1.9
		c-0.3,1.2-0.3,2.5,0,3.7c0.3,2.9,0.9,5.8,1.7,8.5c0.2,0.4,0.3,0.9,0.4,1.3c0.1,0.6,0.3,1.1,0.4,1.1s0.3,0.2,0.3,0.5
		c0,0.4,0.2,0.7,0.4,1c0.2,0.2,0.3,0.4,0.4,0.7c0,0.5,1.9,2,2.6,2c1,0,1.6-1.3,1.8-4.1c0.1-3.9-0.2-7.8-0.8-11.7
		c-0.3-3.7-0.4-7.4-0.2-11.1c0.1-8.6,0-10.2-0.4-10.5C-7191.4,1057.1-7191.6,1057.2-7192,1057.7z"/>
	<path id="Path_780" class="st0" d="M-7191.6,1100.6c-1.2,2.5-1.8,5.3-1.7,8.1c0.5,3.3,1.1,6.6,2,9.8c0.1,0.4,0.5,1.9,1.8,5.9
		c0.3,1,0.5,2.1,0.7,3.2c0.4,2.4,0.7,2.3,1.6-0.9c0.7-2.4,1.1-4.9,1.3-7.5c0.2-1.8,0.1-3.6-0.3-5.4c-0.4-1.3-0.8-2.6-1.4-3.8
		c-0.4-0.4-1.1-3-1.7-4.4C-7190.2,1104.1-7191,1102.3-7191.6,1100.6z"/>
	<path id="Path_781" class="st0" d="M-7187.7,1096.3c-1.3,0.3-1.7,1.1-1.6,3c0,0.7,0.2,1.3,0.4,1.9c0.2,0.5,0.3,1,0.4,1.6
		c1.1,2.2,2.7,4.2,4.6,5.8c0.6,0.2,2-10.5,0.1-11.7C-7185,1096.3-7186.3,1096.1-7187.7,1096.3z"/>
	<path id="Path_782" class="st0" d="M-7211.5,1096.4c-0.1,0-1.7,5.2-1.7,5.3c0,0.2-2.2,5-2.9,6.3c-0.2,0.4-1.4,3.8-1.6,4
		c-0.6,1.8-0.9,3.7-1,5.6c-0.2,3.5,0.5,7,2.1,10.1l0.7,1.1l0.2-1c0.3-1.5,0.6-2.9,1.1-4.3c0.1-0.3,1.5-5,1.6-5.4
		c0.4-1,1.3-5.1,1.7-7.5C-7210.5,1107.1-7210.7,1096.4-7211.5,1096.4z"/>
	<path id="Path_783" class="st0" d="M-7175.9,1092.3c-0.2-0.8-4.5,9.4-4.8,9.8c-0.5,0.7-2.4,10.3-0.7,6.8c0.2-0.1,3.5-2.2,3.6-2.9
		c0.1-1.1,0-0.7,0.2-2.9C-7177.4,1102.7-7175.8,1092.6-7175.9,1092.3z"/>
	<path id="Path_784" class="st0" d="M-7178.9,1110.6c-1.5,2.5-2.8,5.1-3.8,7.9c-0.3,0.8-0.8,1.9-1,2.4c-0.2,0.4-0.3,0.9-0.4,1.3
		c-0.1,0.4-0.2,0.8-0.4,1.2c-0.4,0.8-0.6,1.6-0.9,2.4c-0.2,0.9-0.6,2-0.7,2.4c-0.5,2-0.9,4.1-1.1,6.2c-0.1,1.4-0.4,3.5-0.5,4.8
		c-0.2,1.3-0.4,4.9-0.5,8c-0.6,13.1-0.8,15.7-1.6,18.4c-0.4,1.5-0.8,3.2-1,3.7c-0.1,0.5-0.4,1.8-0.7,2.8c-0.7,2.7-0.7,3.7-0.3,4.3
		c0.4,0.5,3.8-0.8,4.1-1.5c2.5-5.8,12.5-53.2,12.9-56.9c0.3-3.3-3.1-5.5-3.4-7C-7178.4,1110.2-7178.5,1110.2-7178.9,1110.6z"/>
	<path id="Path_785" class="st0" d="M-7226.3,1111.8c-0.2,1.9-3.5,3-3.1,5.6c0.2,1.3,9.2,53.4,9.4,54.6c2.1,2.1,4.6,3.7,7.3,4.7
		c0.4-0.2,0.5-2.4,0.1-4c-0.3-1.2-1-3.6-1.5-5.8c-1.1-4.1-1.6-8.4-1.5-12.6c-0.2-4.1-0.4-8.5-0.5-9.7c-0.2-1.2-0.2-2.4-0.3-3.5
		c0.1-2.2-0.1-4.5-0.5-6.7c0.3-0.9-0.8-5.3-0.7-3.3c0.1-0.7,0-1.4-0.2-2.1c-0.7-2.5-1.5-5-2.4-7.4c-0.2-0.2-0.2-0.4-0.2-0.7
		c-0.1-0.4-0.2-0.9-0.4-1.2c-0.2-0.5-0.6-1.4-0.9-2.1s-1.1-2.6-1.9-4.2C-7225.3,1110.1-7225.9,1109.6-7226.3,1111.8z"/>
	<path id="Path_786" class="st0" d="M-7210.3,1114.7c-0.9,2.2-1.7,4.4-2.3,6.7c-0.3,1.1-0.4,2.2-0.6,3.3c-0.1,1.1-0.3,2.2-0.3,2.3
		c-0.1,0.2-0.1,1.9-0.4,3.6c-0.1,0.5-0.2,2.9-0.2,3.1c-0.4,7.3-0.4,14.6,0,21.9c0.1,3.9,0.5,7.7,1.2,11.5c0.2,1,0.4,2.3,0.5,2.9
		c0.2,1.2,0.9,1.7,0.9,0.7c0.3-2,0.7-3.9,1.3-5.9c0.2-0.6,0.3-1.2,0.4-1.9c0.1-0.6,0.2-1.2,0.4-1.8c0.2-0.7,0.6-2.3,0.9-3.5
		c0.2-1.2,0.6-2.7,0.7-3.2c0.1-0.5,0.4-1.6,0.5-2.4c0.2-0.7,0.4-2.3,0.7-3.5c1.1-4.5,1.7-9.2,1.7-13.8c-0.2-2.1-0.5-4.1-1.1-6.1
		c-0.2-0.7-0.5-2-0.7-2.9s-0.6-2.3-0.8-3.2c-0.2-0.8-0.5-2.2-0.7-2.9c-0.1-0.6-0.3-1.1-0.6-1.7c-0.2-0.3-0.3-0.6-0.2-1
		c-0.1-0.6-0.2-1.2-0.5-1.8C-7209.9,1114.5-7210.1,1114.4-7210.3,1114.7z"/>
	<path id="Path_787" class="st0" d="M-7229.6,1117.3c-0.1,0.7-0.2,1.4-0.2,2.2c0,0.7-0.1,1.4-0.3,2.1c-0.3,1.5-0.4,3-0.5,4.6
		c-0.2,2-0.4,4.5-0.5,5.5c-0.1,1,0,1.9,0.1,2.9c0.2,0.5,0.4,1.6,0.5,2.3s0.5,1.9,0.7,2.8s0.6,2,0.7,2.6c0.1,0.5,0.3,0.9,0.5,1.4
		c0.2,0.3,0.3,0.6,0.4,1c0.2,0.8,0.5,1.5,0.7,2.2c0.3,0.8,0.7,2,0.9,2.5c0.1,0.4,0.3,0.9,0.5,1.2c0.2,0.2,0.2,0.4,0.2,0.6
		c0.3,1.2,0.8,2.3,1.4,3.4c0.1,0.2,0.2,0.5,0.3,0.8c0.1,0.6,0.3,1.1,0.6,1.6c0.9,2.1,1,2.3,1.7,4.1c0.2,0.7,0.5,1.3,0.8,1.9
		c0.2,0.4,0.3,0.8,0.4,1.2c0.1,0.5,0.2,0.9,0.4,1.4c0.1,0.2,0.7,1.9,1.2,3.7c0.3,1.2,0.8,2.4,1.3,3.6c0.1,0.2,0.2,0.5,0.2,0.7
		c0.1,0.4,0.2,0.8,0.4,1.1c1,1.4,1.1-0.7,0.1-5.6c-0.7-3.5-1.6-9.1-2.2-13.1c-0.1-1-0.3-2.1-0.4-2.5c-0.2-0.7-0.8-4.5-1.2-7.7
		c-0.1-0.9-0.3-1.8-0.5-2.6c-0.1-0.5-0.5-1.7-0.7-2.7c-0.2-0.9-0.5-1.8-0.9-2.7c-0.2-0.5-0.3-0.9-0.4-1.4c-0.1-0.5-0.2-1.1-0.4-1.6
		c-0.2-0.6-0.6-1.8-0.9-2.7c-0.3-0.9-0.6-2.2-0.8-2.8c-0.2-0.6-0.5-1.9-0.8-2.8c-0.6-2.2-1.2-4.2-1.7-5.5c-0.2-0.6-0.6-1.9-0.9-2.8
		c-0.1-0.6-0.4-1.2-0.7-1.7C-7229.3,1116.3-7229.5,1116.8-7229.6,1117.3z"/>
	<path id="Path_788" class="st0" d="M-7175.5,1117.3c-0.2,0.6-0.5,1.8-0.8,2.6c-0.2,0.7-0.4,1.3-0.6,1.9c-0.2,0.4-0.3,0.9-0.4,1.4
		c-0.1,0.5-0.3,1-0.4,1.5c-0.1,0.3-0.5,1.6-0.8,2.8c-0.2,0.9-0.5,1.8-0.8,2.6c-0.2,0.4-0.3,0.9-0.4,1.4c-0.2,0.7-0.3,1.4-0.6,2.1
		c-0.7,2.1-1.8,5.9-2.5,8.6c-0.3,1.2-0.8,4-1.3,7.5c-0.3,2.3-0.8,4.8-1,5.9c-0.1,0.7-0.4,2-0.5,3c-0.4,2.8-1.1,6.9-1.5,9.3
		c-1,5.2-1.2,7.3-0.7,7.3c0.7-0.8,1.2-1.8,1.4-2.8c0-0.2,1.4-3.4,1.5-3.9c0.1-0.7,0.3-1.3,0.5-2c0.2-0.6,0.6-1.9,0.9-2.8
		c0.2-0.6,0.4-1.2,0.7-1.8c0.3-0.6,0.6-1.2,0.8-1.8c0.4-0.9,0.8-1.9,0.9-2.2c0.1-0.3,0.5-1.2,0.8-2.1c0.7-1.7,0.8-1.9,1.6-4
		c0.3-0.6,0.5-1.2,0.6-1.9c0-0.2,0.1-0.5,0.2-0.6c0.4-0.6,0.6-1.3,0.8-2c0.3-1,0.8-2.3,1-2.8c0.4-1,1.7-5.4,2.5-8
		c0.5-3.2,0.6-6.5,0.2-9.8c-0.1-0.9-0.4-3.1-0.5-4.9c-0.1-1.5-0.3-3-0.7-4.4l-0.3-1.2L-7175.5,1117.3z"/>
	<path id="Path_789" class="st0" d="M-7196,1119.5c-0.2,0.7-0.4,1.3-0.5,2c-0.1,1.2-0.9,2.7-0.9,3.8c0,0.5-0.1,0.9-0.3,1.3
		c-0.3,0.5-0.5,1.1-0.5,1.7c-0.4,2.4-0.8,4.4-1.1,5.7c-0.1,4.1,0.3,8.1,1.3,12.1c1,4.9,1.2,6.3,1.7,8.2c0.2,1.1,0.5,2.5,0.7,3.3
		c0.1,0.7,0.3,1.5,0.5,2.2c0.5,1.6,1.5,6,2.1,9.2c0.1,0.8,0.3,1.6,0.7,2.3c0.1,0,0.4-0.7,0.5-1.6c0.2-0.9,0.4-2.2,0.6-3
		c0.6-3.7,0.9-7.5,1.1-11.2c0.4-8.8,0.3-17.6-0.2-26.4c-0.2-1.2-0.5-3-0.6-4c-0.2-1-2-12.1-3.5-10.3
		C-7195.2,1116.4-7195.7,1117.9-7196,1119.5z"/>
	<path id="Path_798" class="st0" d="M-7229.1,1092.7c0.2-0.8,4.5,9.4,4.8,9.8c0.5,0.7,2.4,10.3,0.7,6.8c-0.2-0.1-3.5-2.2-3.6-2.9
		c-0.1-1.1,0-0.7-0.2-2.9C-7227.6,1103.1-7229.1,1093-7229.1,1092.7z"/>
	<path id="Path_799" class="st0" d="M-7216.9,1097.1c1.3,0.3,1.7,1.1,1.6,3c0,0.7-0.2,1.3-0.4,1.9c-0.2,0.5-0.3,1-0.4,1.6
		c-1.1,2.2-2.7,4.2-4.6,5.8c-0.6,0.2-2-10.5-0.1-11.7C-7219.7,1097.1-7218.3,1096.9-7216.9,1097.1z"/>
</g>
</svg>
